<?xml version="1.0" encoding="UTF-8" standalone="no"?>
<svg width="32px" height="33px" viewBox="0 0 32 33" version="1.1" xmlns="http://www.w3.org/2000/svg" xmlns:xlink="http://www.w3.org/1999/xlink" xmlns:sketch="http://www.bohemiancoding.com/sketch/ns">
    <!-- Generator: Sketch 3.3 (11970) - http://www.bohemiancoding.com/sketch -->
    <title>icon_links_3</title>
    <desc>Created with Sketch.</desc>
    <defs></defs>
    <g id="Page-1" stroke="none" stroke-width="1" fill="none" fill-rule="evenodd" sketch:type="MSPage">
        <g id="Artboard-1" sketch:type="MSArtboardGroup" transform="translate(-972.000000, -3296.000000)" fill="#555555">
            <g id="Group-+-GPOWER-®-2015-+-Rectangle-50-+-LOGO-Copy" sketch:type="MSLayerGroup" transform="translate(855.000000, 3296.000000)">
                <g id="Group-+-GPOWER-®-2015-+-Rectangle-50" sketch:type="MSShapeGroup">
                    <g id="Group" transform="translate(1.000000, 0.000000)">
                        <path d="M142.666667,10.327381 C141.888885,10.6746049 141.048616,10.9107137 140.145833,11.0357143 C141.090283,10.480156 141.736109,9.66766408 142.083333,8.59821429 C141.180551,9.1259947 140.250005,9.48015783 139.291667,9.66071429 C138.44444,8.74404304 137.381951,8.28571429 136.104167,8.28571429 C134.895827,8.28571429 133.864588,8.71279335 133.010417,9.56696429 C132.156246,10.4211352 131.729167,11.4523749 131.729167,12.6607143 C131.729167,13.0634941 131.763889,13.3968241 131.833333,13.6607143 C130.041658,13.5634916 128.361119,13.1121072 126.791667,12.3065476 C125.222214,11.500988 123.888894,10.4246099 122.791667,9.07738095 C122.388887,9.77182887 122.1875,10.5079326 122.1875,11.2857143 C122.1875,12.8690555 122.819438,14.0843212 124.083333,14.9315476 C123.430552,14.9176587 122.736115,14.7371049 122,14.389881 L122,14.4315476 C122,15.4732195 122.347219,16.4002936 123.041667,17.2127976 C123.736115,18.0253017 124.590273,18.5287689 125.604167,18.7232143 C125.201387,18.834326 124.847224,18.889881 124.541667,18.889881 C124.36111,18.889881 124.09028,18.8621035 123.729167,18.8065476 C124.020835,19.681552 124.538191,20.403767 125.28125,20.9732143 C126.024309,21.5426616 126.868051,21.8343253 127.8125,21.8482143 C126.201381,23.0982205 124.388899,23.7232143 122.375,23.7232143 C122.013887,23.7232143 121.666668,23.7023812 121.333333,23.6607143 C123.388899,24.9662764 125.624988,25.6190476 128.041667,25.6190476 C129.59723,25.6190476 131.055549,25.3725223 132.416667,24.8794643 C133.777785,24.3864063 134.94444,23.7266906 135.916667,22.9002976 C136.888894,22.0739046 137.725691,21.1225252 138.427083,20.046131 C139.128476,18.9697367 139.649304,17.8447479 139.989583,16.671131 C140.329863,15.497514 140.5,14.3273868 140.5,13.1607143 C140.5,12.910713 140.493056,12.7232149 140.479167,12.5982143 C141.354171,11.9732112 142.08333,11.2162743 142.666667,10.327381 L142.666667,10.327381 Z M148,6.28571429 L148,26.2857143 C148,27.9385003 147.4132,29.3516806 146.239583,30.5252976 C145.065966,31.6989146 143.652786,32.2857143 142,32.2857143 L122,32.2857143 C120.347214,32.2857143 118.934034,31.6989146 117.760417,30.5252976 C116.5868,29.3516806 116,27.9385003 116,26.2857143 L116,6.28571429 C116,4.63292824 116.5868,3.21974793 117.760417,2.04613095 C118.934034,0.872513973 120.347214,0.285714286 122,0.285714286 L142,0.285714286 C143.652786,0.285714286 145.065966,0.872513973 146.239583,2.04613095 C147.4132,3.21974793 148,4.63292824 148,6.28571429 L148,6.28571429 Z" id=""></path>
                    </g>
                </g>
            </g>
        </g>
    </g>
</svg>