<?xml version="1.0" encoding="UTF-8" standalone="no"?>
<svg width="32px" height="33px" viewBox="0 0 32 33" version="1.1" xmlns="http://www.w3.org/2000/svg" xmlns:xlink="http://www.w3.org/1999/xlink" xmlns:sketch="http://www.bohemiancoding.com/sketch/ns">
    <!-- Generator: Sketch 3.3 (11970) - http://www.bohemiancoding.com/sketch -->
    <title>icon_links_2</title>
    <desc>Created with Sketch.</desc>
    <defs></defs>
    <g id="Page-1" stroke="none" stroke-width="1" fill="none" fill-rule="evenodd" sketch:type="MSPage">
        <g id="Artboard-1" sketch:type="MSArtboardGroup" transform="translate(-914.000000, -3296.000000)" fill="#555555">
            <g id="Group-+-GPOWER-®-2015-+-Rectangle-50-+-LOGO-Copy" sketch:type="MSLayerGroup" transform="translate(855.000000, 3296.000000)">
                <g id="Group-+-GPOWER-®-2015-+-Rectangle-50" sketch:type="MSShapeGroup">
                    <g id="Group" transform="translate(1.000000, 0.000000)">
                        <path d="M85.2291667,16.7440476 L85.7083333,12.1815476 L81.5833333,12.1815476 L81.5833333,9.91071429 C81.5833333,9.23015533 81.6909711,8.75446564 81.90625,8.48363095 C82.1215289,8.21279626 82.6180517,8.07738095 83.3958333,8.07738095 L85.6875,8.07738095 L85.6875,3.51488095 L82.0416667,3.51488095 C79.930545,3.51488095 78.4166713,4.01487595 77.5,5.01488095 C76.5833288,6.01488595 76.125,7.49403783 76.125,9.45238095 L76.125,12.1815476 L73.3958333,12.1815476 L73.3958333,16.7440476 L76.125,16.7440476 L76.125,29.9732143 L81.5833333,29.9732143 L81.5833333,16.7440476 L85.2291667,16.7440476 Z M90,6.28571429 L90,26.2857143 C90,27.9385003 89.4132003,29.3516806 88.2395833,30.5252976 C87.0659664,31.6989146 85.652786,32.2857143 84,32.2857143 L64,32.2857143 C62.347214,32.2857143 60.9340336,31.6989146 59.7604167,30.5252976 C58.5867997,29.3516806 58,27.9385003 58,26.2857143 L58,6.28571429 C58,4.63292824 58.5867997,3.21974793 59.7604167,2.04613095 C60.9340336,0.872513973 62.347214,0.285714286 64,0.285714286 L84,0.285714286 C85.652786,0.285714286 87.0659664,0.872513973 88.2395833,2.04613095 C89.4132003,3.21974793 90,4.63292824 90,6.28571429 L90,6.28571429 Z" id=""></path>
                    </g>
                </g>
            </g>
        </g>
    </g>
</svg>