<?xml version="1.0" encoding="UTF-8" standalone="no"?>
<svg width="72px" height="72px" viewBox="0 0 72 72" version="1.1" xmlns="http://www.w3.org/2000/svg" xmlns:xlink="http://www.w3.org/1999/xlink" xmlns:sketch="http://www.bohemiancoding.com/sketch/ns">
    <!-- Generator: Sketch 3.3 (11970) - http://www.bohemiancoding.com/sketch -->
    <title>icon_frame</title>
    <desc>Created with Sketch.</desc>
    <defs></defs>
    <g id="Page-1" stroke="none" stroke-width="1" fill="none" fill-rule="evenodd" sketch:type="MSPage">
        <g id="icon_frame" sketch:type="MSLayerGroup">
            <path d="M2,25.9936523 L2,25.9936523 L2,46.0063477 C2,59.2510484 12.746007,70 25.9936523,70 L46.0063477,70 C59.2510484,70 70,59.253993 70,46.0063477 L70,25.9936523 C70,12.7489516 59.253993,2 46.0063477,2 L25.9936523,2 C12.7489516,2 2,12.746007 2,25.9936523 L2,25.9936523 Z M0,25.9936523 C0,11.6377546 11.648066,0 25.9936523,0 L46.0063477,0 C60.3622454,0 72,11.648066 72,25.9936523 L72,46.0063477 C72,60.3622454 60.351934,72 46.0063477,72 L25.9936523,72 C11.6377546,72 0,60.351934 0,46.0063477 L0,25.9936523 L0,25.9936523 Z" id="Shape" fill="#000000" sketch:type="MSShapeGroup"></path>
            <path d="M27,1.5 L27,70.5 L27,1.5 Z M27.5,36 L71,36 L27.5,36 Z" id="Path-15" stroke="#000000" stroke-width="2" sketch:type="MSShapeGroup"></path>
        </g>
    </g>
</svg>