<?xml version="1.0" encoding="UTF-8" standalone="no"?>
<svg width="72px" height="72px" viewBox="0 0 72 72" version="1.1" xmlns="http://www.w3.org/2000/svg" xmlns:xlink="http://www.w3.org/1999/xlink" xmlns:sketch="http://www.bohemiancoding.com/sketch/ns">
    <!-- Generator: Sketch 3.3 (11970) - http://www.bohemiancoding.com/sketch -->
    <title>icon_shape</title>
    <desc>Created with Sketch.</desc>
    <defs></defs>
    <g id="Page-1" stroke="none" stroke-width="1" fill="none" fill-rule="evenodd" sketch:type="MSPage">
        <g id="icon_shape" sketch:type="MSLayerGroup" fill="#000000">
            <path d="M2,25.9936523 L2,25.9936523 L2,46.0063477 C2,59.2510484 12.746007,70 25.9936523,70 L46.0063477,70 C59.2510484,70 70,59.253993 70,46.0063477 L70,25.9936523 C70,12.7489516 59.253993,2 46.0063477,2 L25.9936523,2 C12.7489516,2 2,12.746007 2,25.9936523 L2,25.9936523 Z M0,25.9936523 C0,11.6377546 11.648066,0 25.9936523,0 L46.0063477,0 C60.3622454,0 72,11.648066 72,25.9936523 L72,46.0063477 C72,60.3622454 60.351934,72 46.0063477,72 L25.9936523,72 C11.6377546,72 0,60.351934 0,46.0063477 L0,25.9936523 L0,25.9936523 Z" id="Shape" sketch:type="MSShapeGroup"></path>
            <path d="M51.6297771,51.4825752 C53.837483,49.254011 55.5719205,46.5557887 56.6698823,43.5511156 L56.6698823,43.5511156 L46.2049917,35.9036956 L46.8274653,35.8778445 L40.1088433,41.7006502 L51.6297771,51.4825752 Z M50.9064849,52.1802888 C46.9867829,55.7932412 41.7510995,58 36,58 C27.0573978,58 19.3609851,52.6644287 15.9205494,45.0030737 L28.8423377,32.864424 L28.1763846,32.881147 L39.2329777,42.2688205 L39.3274653,42.3778445 L39.3442505,42.3632973 L50.9064849,52.1802888 Z M15.5072922,44.019257 C14.5342154,41.5345134 14,38.829643 14,36 C14,23.8497355 23.8497355,14 36,14 C48.1502645,14 58,23.8497355 58,36 C58,38.2840584 57.6519293,40.4868206 57.0059372,42.5581371 L46.7950083,35.0963044 L46.4734767,34.8613391 L46.1725347,35.1221555 L39.3375677,41.0457936 L28.8236154,32.118853 L28.4831702,31.8297957 L28.1576623,32.135576 L15.5072922,44.019257 Z" id="Mask" sketch:type="MSShapeGroup"></path>
        </g>
    </g>
</svg>