<?xml version="1.0" encoding="UTF-8" standalone="no"?>
<svg width="72px" height="72px" viewBox="0 0 72 72" version="1.1" xmlns="http://www.w3.org/2000/svg" xmlns:xlink="http://www.w3.org/1999/xlink" xmlns:sketch="http://www.bohemiancoding.com/sketch/ns">
    <!-- Generator: Sketch 3.3 (11970) - http://www.bohemiancoding.com/sketch -->
    <title>icon_cam</title>
    <desc>Created with Sketch.</desc>
    <defs></defs>
    <g id="Page-1" stroke="none" stroke-width="1" fill="none" fill-rule="evenodd" sketch:type="MSPage">
        <g id="icon_cam" sketch:type="MSLayerGroup" fill="#000000">
            <path d="M2,25.9936523 L2,25.9936523 L2,46.0063477 C2,59.2510484 12.746007,70 25.9936523,70 L46.0063477,70 C59.2510484,70 70,59.253993 70,46.0063477 L70,25.9936523 C70,12.7489516 59.253993,2 46.0063477,2 L25.9936523,2 C12.7489516,2 2,12.746007 2,25.9936523 L2,25.9936523 Z M0,25.9936523 C0,11.6377546 11.648066,0 25.9936523,0 L46.0063477,0 C60.3622454,0 72,11.648066 72,25.9936523 L72,46.0063477 C72,60.3622454 60.351934,72 46.0063477,72 L25.9936523,72 C11.6377546,72 0,60.351934 0,46.0063477 L0,25.9936523 L0,25.9936523 Z" id="Shape" sketch:type="MSShapeGroup"></path>
            <path d="M36,58 C48.1502645,58 58,48.1502645 58,36 C58,23.8497355 48.1502645,14 36,14 C23.8497355,14 14,23.8497355 14,36 C14,48.1502645 23.8497355,58 36,58 Z M36,48.75 C43.0416306,48.75 48.75,43.0416306 48.75,36 C48.75,28.9583694 43.0416306,23.25 36,23.25 C28.9583694,23.25 23.25,28.9583694 23.25,36 C23.25,43.0416306 28.9583694,48.75 36,48.75 Z M36,47.25 C29.7867966,47.25 24.75,42.2132034 24.75,36 C24.75,29.7867966 29.7867966,24.75 36,24.75 C42.2132034,24.75 47.25,29.7867966 47.25,36 C47.25,42.2132034 42.2132034,47.25 36,47.25 Z M36,43 C39.8659932,43 43,39.8659932 43,36 C43,32.1340068 39.8659932,29 36,29 C32.1340068,29 29,32.1340068 29,36 C29,39.8659932 32.1340068,43 36,43 Z M38,36 C39.1045695,36 40,35.1045695 40,34 C40,32.8954305 39.1045695,32 38,32 C36.8954305,32 36,32.8954305 36,34 C36,35.1045695 36.8954305,36 38,36 Z" id="Mask" sketch:type="MSShapeGroup"></path>
        </g>
    </g>
</svg>