<?xml version="1.0" encoding="UTF-8" standalone="no"?>
<svg width="72px" height="73px" viewBox="0 0 72 73" version="1.1" xmlns="http://www.w3.org/2000/svg" xmlns:xlink="http://www.w3.org/1999/xlink" xmlns:sketch="http://www.bohemiancoding.com/sketch/ns">
    <!-- Generator: Sketch 3.3 (11970) - http://www.bohemiancoding.com/sketch -->
    <title>icon_diamond</title>
    <desc>Created with Sketch.</desc>
    <defs></defs>
    <g id="Page-1" stroke="none" stroke-width="1" fill="none" fill-rule="evenodd" sketch:type="MSPage">
        <g id="icon_diamond" sketch:type="MSLayerGroup" fill="#000000">
            <path d="M2,26.910319 L2,26.910319 L2,46.9230143 C2,60.1677151 12.746007,70.9166667 25.9936523,70.9166667 L46.0063477,70.9166667 C59.2510484,70.9166667 70,60.1706596 70,46.9230143 L70,26.910319 C70,13.6656182 59.253993,2.91666667 46.0063477,2.91666667 L25.9936523,2.91666667 C12.7489516,2.91666667 2,13.6626737 2,26.910319 L2,26.910319 Z M0,26.910319 C0,12.5544212 11.648066,0.916666667 25.9936523,0.916666667 L46.0063477,0.916666667 C60.3622454,0.916666667 72,12.5647326 72,26.910319 L72,46.9230143 C72,61.2789121 60.351934,72.9166667 46.0063477,72.9166667 L25.9936523,72.9166667 C11.6377546,72.9166667 0,61.2686007 0,46.9230143 L0,26.910319 L0,26.910319 Z" id="Shape" sketch:type="MSShapeGroup"></path>
            <path d="M49.6165087,22.9780871 C49.3141825,22.4417877 48.5309912,22.0043959 47.8787285,22.0043959 L35.9070896,22.0043959 C35.8832844,22.0021979 24.1187507,22.0043959 24.1187507,22.0043959 C23.466488,22.0043959 22.6809162,22.4417877 22.373829,22.9758892 L17.1961963,29.9830825 C16.8891091,30.514986 16.9486221,32.3546024 17.331886,32.8469429 L35.1524645,54.6285467 C35.3429061,54.8747169 35.5976219,55 35.8499571,55 C36.1022923,55 36.3522469,54.8791128 36.5450691,54.6373385 L54.6584517,33.0227787 C55.0464765,32.5348342 55.1131311,30.6974157 54.810805,30.1633142 L49.6165087,22.9780871 Z M49,24 L53,31 L46,31 L49,24 Z M47.9836066,24 L44.5010477,31 L37.9508197,24 L47.9836066,24 Z M36.2786885,24 L42.9672131,31 L29.5901639,31 L36.2786885,24 Z M34.6065574,24 L28.0709654,31 L24.5737705,24 L34.6065574,24 Z M23,24 L26,31 L19,31 L23,24 Z M27,32 L36,53 L19,32 L27,32 Z M28.5,32 L43.5,32 L36.030566,50 L28.5,32 Z M45,32 L53,32 L36,53 L45,32 Z" id="Shape" sketch:type="MSShapeGroup"></path>
        </g>
    </g>
</svg>