<?xml version="1.0" encoding="UTF-8" standalone="no"?>
<svg width="33px" height="33px" viewBox="0 0 33 33" version="1.1" xmlns="http://www.w3.org/2000/svg" xmlns:xlink="http://www.w3.org/1999/xlink" xmlns:sketch="http://www.bohemiancoding.com/sketch/ns">
    <!-- Generator: Sketch 3.3 (11970) - http://www.bohemiancoding.com/sketch -->
    <title>icon_links_4</title>
    <desc>Created with Sketch.</desc>
    <defs></defs>
    <g id="Page-1" stroke="none" stroke-width="1" fill="none" fill-rule="evenodd" sketch:type="MSPage">
        <g id="Artboard-1" sketch:type="MSArtboardGroup" transform="translate(-1031.000000, -3296.000000)" fill="#555555">
            <g id="Group-+-GPOWER-®-2015-+-Rectangle-50-+-LOGO-Copy" sketch:type="MSLayerGroup" transform="translate(855.000000, 3296.000000)">
                <g id="Group-+-GPOWER-®-2015-+-Rectangle-50" sketch:type="MSShapeGroup">
                    <g id="Group" transform="translate(1.000000, 0.000000)">
                        <path d="M189.625,30.8065476 C189.625,31.334328 189.555556,31.8273787 189.416667,32.2857143 L181.5,32.2857143 C180.180549,32.2857143 178.989589,31.8933571 177.927083,31.108631 C176.864578,30.3239048 176.145835,29.2996095 175.770833,28.0357143 C176.104168,27.4107112 176.58333,26.8725221 177.208333,26.421131 C177.833336,25.9697398 178.527774,25.6259932 179.291667,25.389881 C180.055559,25.1537687 180.798607,24.9871037 181.520833,24.889881 C182.243059,24.7926582 182.986107,24.7440476 183.75,24.7440476 C184.194447,24.7440476 184.534721,24.7579364 184.770833,24.7857143 C184.854167,24.8412701 185.065971,24.987102 185.40625,25.2232143 C185.746529,25.4593266 185.975694,25.6190472 186.09375,25.702381 C186.211806,25.7857147 186.427082,25.9454353 186.739583,26.1815476 C187.052085,26.4176599 187.274305,26.5947415 187.40625,26.7127976 C187.538195,26.8308538 187.729165,27.0079353 187.979167,27.2440476 C188.229168,27.4801599 188.413194,27.685019 188.53125,27.858631 C188.649306,28.0322429 188.795138,28.2440464 188.96875,28.4940476 C189.142362,28.7440489 189.263889,28.9836298 189.333333,29.2127976 C189.402778,29.4419654 189.46875,29.6919629 189.53125,29.9627976 C189.59375,30.2336323 189.625,30.5148795 189.625,30.8065476 L189.625,30.8065476 Z M183.520833,23.4940476 C180.270817,23.5912703 177.597233,24.1815422 175.5,25.264881 L175.5,16.2440476 C176.930563,17.8829447 178.826377,18.702381 181.1875,18.702381 C181.631947,18.702381 182.118053,18.6676591 182.645833,18.5982143 C182.354165,19.4454407 182.208333,20.042657 182.208333,20.389881 C182.208333,21.3204412 182.645829,22.355153 183.520833,23.4940476 L183.520833,23.4940476 Z M187.125,12.8482143 C187.125,14.2371101 186.82292,15.3516823 186.21875,16.1919643 C185.61458,17.0322463 184.638896,17.452381 183.291667,17.452381 C182.58333,17.452381 181.909725,17.2718272 181.270833,16.9107143 C180.631941,16.5496014 180.09028,16.0808561 179.645833,15.5044643 C179.201387,14.9280725 178.812502,14.2787735 178.479167,13.5565476 C178.145832,12.8343218 177.899306,12.1121068 177.739583,11.389881 C177.57986,10.6676551 177.5,9.98016199 177.5,9.32738095 C177.5,7.99404095 177.857635,6.84821908 178.572917,5.88988095 C179.288198,4.93154283 180.29166,4.45238095 181.583333,4.45238095 C182.500005,4.45238095 183.326385,4.73710033 184.0625,5.30654762 C184.798615,5.87599491 185.381942,6.59820991 185.8125,7.47321429 C186.243058,8.34821866 186.569443,9.25098741 186.791667,10.1815476 C187.01389,11.1121078 187.125,12.0009878 187.125,12.8482143 L187.125,12.8482143 Z M207.5,10.952381 L207.5,26.2857143 C207.5,27.9385003 206.9132,29.3516806 205.739583,30.5252976 C204.565966,31.6989146 203.152786,32.2857143 201.5,32.2857143 L191.75,32.2857143 C192.291669,31.2718203 192.5625,30.1815535 192.5625,29.014881 C192.5625,28.0982097 192.409724,27.2475238 192.104167,26.4627976 C191.79861,25.6780715 191.413197,25.0322446 190.947917,24.5252976 C190.482637,24.0183506 189.982642,23.5253 189.447917,23.046131 C188.913192,22.5669619 188.413197,22.1537716 187.947917,21.8065476 C187.482637,21.4593237 187.097224,21.0808552 186.791667,20.671131 C186.48611,20.2614067 186.333333,19.8482164 186.333333,19.4315476 C186.333333,18.9315451 186.493054,18.4593276 186.8125,18.014881 C187.131946,17.5704343 187.520831,17.1433552 187.979167,16.733631 C188.437502,16.3239067 188.892359,15.8759945 189.34375,15.389881 C189.795141,14.9037674 190.180554,14.2579405 190.5,13.452381 C190.819446,12.6468214 190.979167,11.7371082 190.979167,10.7232143 C190.979167,9.70932033 190.795141,8.69891376 190.427083,7.69196429 C190.059026,6.68501481 189.534726,5.86210637 188.854167,5.22321429 C188.770833,5.13988054 188.673612,5.06349241 188.5625,4.99404762 C188.451388,4.92460283 188.364584,4.87252001 188.302083,4.83779762 C188.239583,4.80307522 188.170139,4.73710366 188.09375,4.63988095 C188.017361,4.54265824 187.944445,4.42460387 187.875,4.28571429 L190.6875,4.28571429 L193.5,2.95238095 L184.395833,2.95238095 C182.479157,2.95238095 180.781257,3.21973939 179.302083,3.75446429 C177.822909,4.28918918 176.555561,5.21626324 175.5,6.53571429 C175.5,4.78570554 176.062494,3.30655366 177.1875,2.09821429 C178.312506,0.889874911 179.749991,0.285714286 181.5,0.285714286 L201.5,0.285714286 C203.152786,0.285714286 204.565966,0.872513973 205.739583,2.04613095 C206.9132,3.21974793 207.5,4.63292824 207.5,6.28571429 L207.5,8.28571429 L202.166667,8.28571429 L202.166667,2.95238095 L199.5,2.95238095 L199.5,8.28571429 L194.166667,8.28571429 L194.166667,10.952381 L199.5,10.952381 L199.5,16.2857143 L202.166667,16.2857143 L202.166667,10.952381 L207.5,10.952381 Z" id=""></path>
                    </g>
                </g>
            </g>
        </g>
    </g>
</svg>