<?xml version="1.0" encoding="UTF-8" standalone="no"?>
<svg width="72px" height="90px" viewBox="0 0 72 90" version="1.1" xmlns="http://www.w3.org/2000/svg" xmlns:xlink="http://www.w3.org/1999/xlink" xmlns:sketch="http://www.bohemiancoding.com/sketch/ns">
    <!-- Generator: Sketch 3.3 (11970) - http://www.bohemiancoding.com/sketch -->
    <title>icon_iphone</title>
    <desc>Created with Sketch.</desc>
    <defs></defs>
    <g id="Page-1" stroke="none" stroke-width="1" fill="none" fill-rule="evenodd" sketch:type="MSPage">
        <rect id="Rectangle-12" fill="#000000" sketch:type="MSShapeGroup" x="10" y="0" width="49" height="90" rx="12"></rect>
        <rect id="Rectangle-15" fill="#FFFFFF" sketch:type="MSShapeGroup" x="31" y="7" width="8" height="2" rx="2"></rect>
        <circle id="Oval-2" fill="#FFFFFF" sketch:type="MSShapeGroup" cx="35" cy="5" r="1"></circle>
        <rect id="Rectangle-18" stroke="#000000" fill="#FFFFFF" sketch:type="MSShapeGroup" x="1" y="53" width="70" height="22"></rect>
        <path d="M17.4600932,59 C17.6465612,59 17.8054803,59.0717696 17.9368555,59.215311 C18.0682306,59.3588524 18.1339172,59.5308716 18.1339172,59.7313739 C18.1339172,59.9409899 18.0692901,60.1164267 17.9400339,60.2576897 C17.8107777,60.3989526 17.6507991,60.469583 17.4600932,60.469583 C17.286339,60.469583 17.1327172,60.395535 16.9992231,60.2474368 C16.865729,60.0993385 16.7989829,59.9273193 16.7989829,59.7313739 C16.7989829,59.5354285 16.865729,59.3645485 16.9992231,59.2187286 C17.1327172,59.0729088 17.286339,59 17.4600932,59 L17.4600932,59 L17.4600932,59 Z M17.9432123,68.8154477 L16.9515468,68.8154477 L16.9515468,62.6158578 L15,62.6158578 L15,61.6930964 L17.9432123,61.6930964 L17.9432123,68.8154477 L17.9432123,68.8154477 Z M22.5646278,59.1708817 L24.8403729,59.1708817 C25.7006682,59.1708817 26.3893179,59.4032786 26.9063427,59.8680793 C27.4233675,60.33288 27.681876,60.9731105 27.681876,61.7887902 C27.681876,62.6090267 27.4244269,63.2640668 26.9095211,63.7539303 C26.3946153,64.2437937 25.7197386,64.4887218 24.8848707,64.4887218 L23.6071479,64.4887218 L23.6071479,68.8154477 L22.5646278,68.8154477 L22.5646278,59.1708817 L22.5646278,59.1708817 Z M23.6071479,63.5112782 L24.7386637,63.5112782 C25.963419,63.5112782 26.5757875,62.9599053 26.5757875,61.8571429 C26.5757875,61.3467735 26.4094522,60.934383 26.0767764,60.619959 C25.7441006,60.305535 25.3150189,60.1483254 24.7895183,60.1483254 L23.6071479,60.1483254 L23.6071479,63.5112782 L23.6071479,63.5112782 Z M35.2210764,68.8154477 L34.2294109,68.8154477 L34.2294109,64.2494874 C34.2294109,63.6160825 34.1351189,63.1569848 33.946532,62.8721805 C33.7579451,62.5873761 33.4623555,62.4449761 33.0597542,62.4449761 C32.4537334,62.4449761 31.8032243,62.8505314 31.1082074,63.6616541 L31.1082074,68.8154477 L30.1165419,68.8154477 L30.1165419,59.1708817 L31.1082074,59.1708817 L31.1082074,62.7388927 C31.8201759,61.9277699 32.5702743,61.5222146 33.3585252,61.5222146 C34.6002322,61.5222146 35.2210764,62.3287684 35.2210764,63.9419002 L35.2210764,68.8154477 L35.2210764,68.8154477 Z M40.4654612,61.5222146 C41.3766114,61.5222146 42.1012828,61.8639747 42.6394971,62.5475051 C43.1777114,63.2310355 43.4468145,64.1310038 43.4468145,65.2474368 C43.4468145,66.3729835 43.1777114,67.2797869 42.6394971,67.9678742 C42.1012828,68.6559615 41.3766114,69 40.4654612,69 C39.5500731,69 38.8243423,68.6571007 38.2882469,67.9712919 C37.7521516,67.285483 37.4841079,66.3775404 37.4841079,65.2474368 C37.4841079,64.1264469 37.753211,63.2253395 38.2914253,62.5440875 C38.8296396,61.8628355 39.554311,61.5222146 40.4654612,61.5222146 L40.4654612,61.5222146 L40.4654612,61.5222146 Z M40.4654612,68.0704033 C41.0672441,68.0704033 41.5418827,67.7969952 41.8893912,67.2501709 C42.2368996,66.7033465 42.4106512,66.040332 42.4106512,65.2611073 C42.4106512,64.4408708 42.2390185,63.7664643 41.895748,63.2378674 C41.5524774,62.7092705 41.07572,62.4449761 40.4654612,62.4449761 C39.8509646,62.4449761 39.3742071,62.7058529 39.0351745,63.2276145 C38.6961418,63.749376 38.5266281,64.4272002 38.5266281,65.2611073 C38.5266281,66.0540026 38.6982608,66.7204348 39.0415313,67.2604238 C39.3848018,67.8004128 39.8594404,68.0704033 40.4654612,68.0704033 L40.4654612,68.0704033 L40.4654612,68.0704033 Z M50.8461647,68.8154477 L49.8544992,68.8154477 L49.8544992,64.2494874 C49.8544992,63.6160825 49.7602072,63.1569848 49.5716203,62.8721805 C49.3830334,62.5873761 49.0874437,62.4449761 48.6848425,62.4449761 C48.0788217,62.4449761 47.4283126,62.8505314 46.7332957,63.6616541 L46.7332957,68.8154477 L45.7416302,68.8154477 L45.7416302,61.6930964 L46.7332957,61.6930964 L46.7332957,62.7388927 C47.4452642,61.9277699 48.1953626,61.5222146 48.9836135,61.5222146 C50.2253205,61.5222146 50.8461647,62.3287684 50.8461647,63.9419002 L50.8461647,68.8154477 L50.8461647,68.8154477 Z M58.8557706,65.2884484 L54.3106371,65.2884484 C54.3106371,66.0950143 54.5278266,66.7603072 54.9622122,67.2843472 C55.3965977,67.8083872 55.9295067,68.0704033 56.5609549,68.0704033 C57.1627379,68.0704033 57.7835821,67.9542049 58.4235061,67.7218045 L58.5951406,68.5762133 C58.0103093,68.8587392 57.3280163,69 56.5482413,69 C55.5650466,69 54.7725698,68.6605183 54.1707868,67.9815448 C53.5690039,67.3025712 53.268117,66.3866542 53.268117,65.2337662 C53.268117,64.1036626 53.5382795,63.2025552 54.0786128,62.530417 C54.6189461,61.8582787 55.3171309,61.5222146 56.1731883,61.5222146 C56.9360117,61.5222146 57.5738073,61.8343555 58.0865942,62.4586466 C58.599381,63.0829377 58.8557706,63.9145539 58.8557706,64.9535202 L58.8557706,65.2884484 L58.8557706,65.2884484 Z M57.7751095,64.4203691 C57.7751095,63.864431 57.6140714,63.3962197 57.2919904,63.0157211 C56.9699094,62.6352225 56.6096926,62.4449761 56.2113293,62.4449761 C55.6985424,62.4449761 55.2736985,62.6272481 54.9367849,62.9917977 C54.5998712,63.3563472 54.4123466,63.8325329 54.3742054,64.4203691 L57.7751095,64.4203691 L57.7751095,64.4203691 Z" id="iPhone" fill="#000000" sketch:type="MSShapeGroup"></path>
    </g>
</svg>