<?xml version="1.0" encoding="UTF-8" standalone="no"?>
<svg width="77px" height="90px" viewBox="0 0 77 90" version="1.1" xmlns="http://www.w3.org/2000/svg" xmlns:xlink="http://www.w3.org/1999/xlink" xmlns:sketch="http://www.bohemiancoding.com/sketch/ns">
    <!-- Generator: Sketch 3.3 (11970) - http://www.bohemiancoding.com/sketch -->
    <title>icon_android</title>
    <desc>Created with Sketch.</desc>
    <defs></defs>
    <g id="Page-1" stroke="none" stroke-width="1" fill="none" fill-rule="evenodd" sketch:type="MSPage">
        <rect id="Rectangle-12-Copy-2" fill="#000000" sketch:type="MSShapeGroup" x="12" y="0" width="54" height="90" rx="3"></rect>
        <rect id="Rectangle-15-Copy-2" fill="#FFFFFF" sketch:type="MSShapeGroup" x="36" y="4" width="7" height="2" rx="2"></rect>
        <circle id="Oval-2-Copy-2" fill="#FFFFFF" sketch:type="MSShapeGroup" cx="21" cy="5" r="1"></circle>
        <rect id="Rectangle-18-Copy-2" stroke="#000000" fill="#FFFFFF" sketch:type="MSShapeGroup" x="1" y="53" width="75" height="22"></rect>
        <path d="M19.0706763,67.8154477 L17.9838521,67.8154477 L16.9981278,64.4388243 L14.0725486,64.4388243 L13.0741868,67.8154477 L12,67.8154477 L14.9129417,58.1708817 L16.1577346,58.1708817 L19.0706763,67.8154477 L19.0706763,67.8154477 Z M16.7011467,63.4613807 L15.5321788,59.469583 L14.3695296,63.4613807 L16.7011467,63.4613807 L16.7011467,63.4613807 Z M25.8380529,67.8154477 L24.8523286,67.8154477 L24.8523286,63.2494874 C24.8523286,62.6160825 24.7586015,62.1569848 24.5711444,61.8721805 C24.3836873,61.5873761 24.0898686,61.4449761 23.6896794,61.4449761 C23.0872893,61.4449761 22.4406775,61.8505314 21.7498245,62.6616541 L21.7498245,67.8154477 L20.7641002,67.8154477 L20.7641002,60.6930964 L21.7498245,60.6930964 L21.7498245,61.7388927 C22.4575275,60.9277699 23.2031321,60.5222146 23.9866604,60.5222146 C25.2209282,60.5222146 25.8380529,61.3287684 25.8380529,62.9419002 L25.8380529,67.8154477 L25.8380529,67.8154477 Z M33.5785163,67.8154477 L32.5927919,67.8154477 L32.5927919,66.7901572 C32.3905911,67.1410362 32.1009848,67.430393 31.7239644,67.6582365 C31.3469441,67.88608 30.9499202,68 30.5328809,68 C29.7788401,68 29.1827778,67.6365951 28.7446759,66.9097744 C28.306574,66.1829538 28.0875263,65.2613407 28.0875263,64.1449077 C28.0875263,63.1013846 28.316052,62.2367316 28.7731102,61.5509228 C29.2301684,60.8651139 29.8357088,60.5222146 30.5897496,60.5222146 C31.4196157,60.5222146 32.0872898,60.8867587 32.5927919,61.6158578 L32.5927919,58.1708817 L33.5785163,58.1708817 L33.5785163,67.8154477 L33.5785163,67.8154477 Z M32.5927919,65.6349966 L32.5927919,62.6753247 C32.1209899,61.8550882 31.5523085,61.4449761 30.8867306,61.4449761 C30.3433158,61.4449761 29.9136454,61.7058529 29.5977065,62.2276145 C29.2817677,62.749376 29.1238006,63.408973 29.1238006,64.2064252 C29.1238006,65.0266617 29.2722896,65.7044858 29.5692722,66.239918 C29.8662547,66.7753501 30.2738097,67.0430622 30.7919495,67.0430622 C31.040488,67.0430622 31.2911291,66.9701534 31.5438802,66.8243336 C31.7966313,66.6785137 32.034635,66.4597873 32.2578984,66.1681476 C32.4811619,65.876508 32.5927919,65.6987928 32.5927919,65.6349966 L32.5927919,65.6349966 L32.5927919,65.6349966 Z M41.4706295,60.8844839 L41.0725486,61.9097744 C40.6386592,61.7047153 40.2637507,61.6021873 39.9478118,61.6021873 C39.6571481,61.6021873 39.3728074,61.6921841 39.0947812,61.8721805 C38.816755,62.0521768 38.5608483,62.3096361 38.3270536,62.644566 C38.0932588,62.9794959 37.9763632,63.1674639 37.9763632,63.2084757 L37.9763632,67.8154477 L36.9969576,67.8154477 L36.9969576,60.6930964 L37.9763632,60.6930964 L37.9763632,62.1353383 C38.502928,61.0599172 39.1853457,60.5222146 40.0236368,60.5222146 C40.5207139,60.5222146 41.00304,60.6429699 41.4706295,60.8844839 L41.4706295,60.8844839 L41.4706295,60.8844839 Z M46.5824947,60.5222146 C47.4881861,60.5222146 48.2085159,60.8639747 48.7435057,61.5475051 C49.2784955,62.2310355 49.5459864,63.1310038 49.5459864,64.2474368 C49.5459864,65.3729835 49.2784955,66.2797869 48.7435057,66.9678742 C48.2085159,67.6559615 47.4881861,68 46.5824947,68 C45.6725908,68 44.9512079,67.6571007 44.4183244,66.9712919 C43.8854408,66.285483 43.619003,65.3775404 43.619003,64.2474368 C43.619003,63.1264469 43.8864939,62.2253395 44.4214837,61.5440875 C44.9564735,60.8628355 45.6768033,60.5222146 46.5824947,60.5222146 L46.5824947,60.5222146 L46.5824947,60.5222146 Z M46.5824947,67.0704033 C47.1806723,67.0704033 47.6524673,66.7969952 47.9978938,66.2501709 C48.3433202,65.7033465 48.5160309,65.040332 48.5160309,64.2611073 C48.5160309,63.4408708 48.3454265,62.7664643 48.0042125,62.2378674 C47.6629985,61.7092705 47.1890973,61.4449761 46.5824947,61.4449761 C45.9716796,61.4449761 45.4977784,61.7058529 45.160777,62.2276145 C44.8237755,62.749376 44.6552773,63.4272002 44.6552773,64.2611073 C44.6552773,65.0540026 44.8258817,65.7204348 45.1670957,66.2604238 C45.5083097,66.8004128 45.9801046,67.0704033 46.5824947,67.0704033 L46.5824947,67.0704033 L46.5824947,67.0704033 Z M54.7779078,58 C54.9632586,58 55.1212257,58.0717696 55.2518137,58.215311 C55.3824018,58.3588524 55.4476948,58.5308716 55.4476948,58.7313739 C55.4476948,58.9409899 55.3834549,59.1164267 55.2549731,59.2576897 C55.1264913,59.3989526 54.9674711,59.469583 54.7779078,59.469583 C54.6051945,59.469583 54.4524931,59.395535 54.3197987,59.2474368 C54.1871044,59.0993385 54.1207582,58.9273193 54.1207582,58.7313739 C54.1207582,58.5354285 54.1871044,58.3645485 54.3197987,58.2187286 C54.4524931,58.0729088 54.6051945,58 54.7779078,58 L54.7779078,58 L54.7779078,58 Z M55.2581325,67.8154477 L54.2724081,67.8154477 L54.2724081,61.6158578 L52.3325532,61.6158578 L52.3325532,60.6930964 L55.2581325,60.6930964 L55.2581325,67.8154477 L55.2581325,67.8154477 Z M64.6414697,67.8154477 L63.6557454,67.8154477 L63.6557454,66.7901572 C63.4535445,67.1410362 63.1639382,67.430393 62.7869179,67.6582365 C62.4098975,67.88608 62.0128736,68 61.5958343,68 C60.8417936,68 60.2457312,67.6365951 59.8076293,66.9097744 C59.3695274,66.1829538 59.1504798,65.2613407 59.1504798,64.1449077 C59.1504798,63.1013846 59.3790054,62.2367316 59.8360637,61.5509228 C60.2931219,60.8651139 60.8986623,60.5222146 61.652703,60.5222146 C62.4825691,60.5222146 63.1502432,60.8867587 63.6557454,61.6158578 L63.6557454,58.1708817 L64.6414697,58.1708817 L64.6414697,67.8154477 L64.6414697,67.8154477 Z M63.6557454,65.6349966 L63.6557454,62.6753247 C63.1839433,61.8550882 62.6152619,61.4449761 61.9496841,61.4449761 C61.4062692,61.4449761 60.9765988,61.7058529 60.66066,62.2276145 C60.3447211,62.749376 60.186754,63.408973 60.186754,64.2064252 C60.186754,65.0266617 60.3352431,65.7044858 60.6322256,66.239918 C60.9292081,66.7753501 61.3367631,67.0430622 61.8549029,67.0430622 C62.1034414,67.0430622 62.3540825,66.9701534 62.6068336,66.8243336 C62.8595847,66.6785137 63.0975884,66.4597873 63.3208519,66.1681476 C63.5441153,65.876508 63.6557454,65.6987928 63.6557454,65.6349966 L63.6557454,65.6349966 L63.6557454,65.6349966 Z" id="Android" fill="#000000" sketch:type="MSShapeGroup"></path>
    </g>
</svg>