<?xml version="1.0" encoding="UTF-8" standalone="no"?>
<svg width="72px" height="72px" viewBox="0 0 72 72" version="1.1" xmlns="http://www.w3.org/2000/svg" xmlns:xlink="http://www.w3.org/1999/xlink" xmlns:sketch="http://www.bohemiancoding.com/sketch/ns">
    <!-- Generator: Sketch 3.3 (11970) - http://www.bohemiancoding.com/sketch -->
    <title>icon_filter</title>
    <desc>Created with Sketch.</desc>
    <defs></defs>
    <g id="Page-1" stroke="none" stroke-width="1" fill="none" fill-rule="evenodd" sketch:type="MSPage">
        <g id="icon_filter" sketch:type="MSLayerGroup" fill="#000000">
            <path d="M2,25.9936523 L2,25.9936523 L2,46.0063477 C2,59.2510484 12.746007,70 25.9936523,70 L46.0063477,70 C59.2510484,70 70,59.253993 70,46.0063477 L70,25.9936523 C70,12.7489516 59.253993,2 46.0063477,2 L25.9936523,2 C12.7489516,2 2,12.746007 2,25.9936523 L2,25.9936523 Z M0,25.9936523 C0,11.6377546 11.648066,0 25.9936523,0 L46.0063477,0 C60.3622454,0 72,11.648066 72,25.9936523 L72,46.0063477 C72,60.3622454 60.351934,72 46.0063477,72 L25.9936523,72 C11.6377546,72 0,60.351934 0,46.0063477 L0,25.9936523 L0,25.9936523 Z" id="Shape" sketch:type="MSShapeGroup"></path>
            <path d="M36.5546195,14.15 C36.2266004,13.95 35.7960754,13.95 35.4680563,14.15 C34.6685098,14.64 16.0226757,26.22 16.0226757,40.86 C15.5408977,48.22 22.8290715,52.27 29.030682,54.37 C31.4805745,55.2 33.674202,56.68 34.7300134,57.39 C35.4270539,57.86 35.6320658,58 36.0113379,58 C36.3803593,58 36.5648701,57.88 37.25166,57.42 C38.3074714,56.7 40.5113495,55.22 42.9919937,54.36 C48.9270888,52.31 56,48.32 56,40.93 C56,26.22 37.3541659,14.64 36.5546195,14.15 L36.5546195,14.15 Z M36.8416361,16.89 C38.0717077,17.81 40.0808245,19.33 42.2949532,21.31 C40.5113495,21.54 38.6867434,21.67 36.8416361,21.7 L36.8416361,16.89 L36.8416361,16.89 Z M36.8416361,22.83 C39.0660155,22.79 41.2493924,22.62 43.391767,22.31 C44.6628409,23.49 45.954416,24.8 47.1844875,26.23 C43.8427932,26.91 40.3780918,27.28 36.8416361,27.34 L36.8416361,22.83 L36.8416361,22.83 Z M36.8416361,28.46 C40.6651084,28.41 44.3963254,27.97 47.9942846,27.2 C49.0193441,28.46 49.9829002,29.79 50.8131984,31.19 C46.333688,32.3 41.6594162,32.91 36.8416361,32.97 L36.8416361,28.46 L36.8416361,28.46 Z M36.8416361,34.1 C41.8644282,34.03 46.7334613,33.39 51.3974824,32.22 C52.1252747,33.57 52.7198093,34.97 53.1400837,36.42 C47.932781,37.78 42.4794639,38.54 36.8416361,38.6 L36.8416361,34.1 L36.8416361,34.1 Z M47.2767428,50.23 C47.2664922,50.23 47.245991,50.23 47.2357405,50.24 C45.6161463,51.16 43.8632944,51.9 42.2129484,52.47 C40.0910751,53.21 37.8666957,54.32 36.8416361,55.15 L36.8416361,51 C40.3678412,50.96 43.8325426,50.7 47.2357405,50.24 C47.3894994,50.15 47.5330077,50.07 47.6765161,49.98 C47.5432583,50.07 47.4100006,50.15 47.2767428,50.23 L47.2767428,50.23 Z M49.5318739,48.72 C45.4008838,49.43 41.1673876,49.83 36.8416361,49.87 L36.8416361,45.37 C42.5706942,45.3 48.1347177,44.6 53.4742532,43.311 C52.8479417,45.496 51.3851817,47.279 49.5318739,48.72 L49.5318739,48.72 Z M53.2425897,42.14 L53.2425897,42.09 C48.1172917,43.44 42.6639747,44.17 36.8416361,44.24 L36.8416361,39.73 C42.5717193,39.66 48.1275423,38.89 53.4168498,37.5 C53.6731147,38.62 53.8166231,39.77 53.8166231,40.93 C53.8166231,41.33 53.539857,41.71 53.4988546,42.09 C53.4988546,42.11 53.2425897,42.12 53.2425897,42.14 L53.2425897,42.14 Z" id="Shape" sketch:type="MSShapeGroup"></path>
        </g>
    </g>
</svg>