<?xml version="1.0" encoding="UTF-8" standalone="no"?>
<svg width="83px" height="90px" viewBox="0 0 83 90" version="1.1" xmlns="http://www.w3.org/2000/svg" xmlns:xlink="http://www.w3.org/1999/xlink" xmlns:sketch="http://www.bohemiancoding.com/sketch/ns">
    <!-- Generator: Sketch 3.3 (11970) - http://www.bohemiancoding.com/sketch -->
    <title>icon_pad</title>
    <desc>Created with Sketch.</desc>
    <defs></defs>
    <g id="Page-1" stroke="none" stroke-width="1" fill="none" fill-rule="evenodd" sketch:type="MSPage">
        <rect id="Rectangle-12-Copy" fill="#000000" sketch:type="MSShapeGroup" x="8" y="0" width="67" height="90" rx="12"></rect>
        <rect id="Rectangle-15-Copy" fill="#FFFFFF" sketch:type="MSShapeGroup" x="38" y="7" width="8" height="2" rx="2"></rect>
        <circle id="Oval-2-Copy" fill="#FFFFFF" sketch:type="MSShapeGroup" cx="42" cy="5" r="1"></circle>
        <rect id="Rectangle-18-Copy" stroke="#000000" fill="#FFFFFF" sketch:type="MSShapeGroup" x="1" y="53" width="81" height="22"></rect>
        <path d="M29.5124432,59 C29.7028791,59 29.86518,59.0717696 29.9993508,59.215311 C30.1335216,59.3588524 30.2006059,59.5308716 30.2006059,59.7313739 C30.2006059,59.9409899 30.1346036,60.1164267 30.0025968,60.2576897 C29.8705901,60.3989526 29.7072072,60.469583 29.5124432,60.469583 C29.3349915,60.469583 29.1781007,60.395535 29.0417659,60.2474368 C28.905431,60.0993385 28.8372647,59.9273193 28.8372647,59.7313739 C28.8372647,59.5354285 28.905431,59.3645485 29.0417659,59.2187286 C29.1781007,59.0729088 29.3349915,59 29.5124432,59 L29.5124432,59 L29.5124432,59 Z M30.0058429,68.8154477 L28.9930751,68.8154477 L28.9930751,62.6158578 L27,62.6158578 L27,61.6930964 L30.0058429,61.6930964 L30.0058429,68.8154477 L30.0058429,68.8154477 Z M34.7256005,59.1708817 L37.0497728,59.1708817 C37.9283749,59.1708817 38.6316788,59.4032786 39.1597057,59.8680793 C39.6877326,60.33288 39.951742,60.9731105 39.951742,61.7887902 C39.951742,62.6090267 39.6888146,63.2640668 39.1629517,63.7539303 C38.6370889,64.2437937 37.947851,64.4887218 37.0952175,64.4887218 L35.7903051,64.4887218 L35.7903051,68.8154477 L34.7256005,68.8154477 L34.7256005,59.1708817 L34.7256005,59.1708817 Z M35.7903051,63.5112782 L36.9458992,63.5112782 C38.1967169,63.5112782 38.8221164,62.9599053 38.8221164,61.8571429 C38.8221164,61.3467735 38.6522415,60.934383 38.3124865,60.619959 C37.9727315,60.305535 37.534519,60.1483254 36.997836,60.1483254 L35.7903051,60.1483254 L35.7903051,63.5112782 L35.7903051,63.5112782 Z M47.8201688,68.8154477 L46.8138931,68.8154477 C46.7316594,68.5283649 46.6905432,68.1455936 46.6905432,67.6671224 C46.1149073,68.5557119 45.3315349,69 44.3404025,69 C43.8383442,69 43.3958037,68.812032 43.0127678,68.4360902 C42.6297319,68.0601485 42.4382168,67.5759884 42.4382168,66.9835954 C42.4382168,66.6327164 42.5053012,66.3228539 42.639472,66.0539986 C42.7736427,65.7851433 42.9705678,65.5584425 43.2302532,65.3738893 C43.4899385,65.1893361 43.8058843,65.0435184 44.1781,64.936432 C44.5503156,64.8293456 44.9917741,64.7552975 45.5024886,64.7142857 L46.6386064,64.6185919 L46.6386064,64.2768284 C46.6386064,63.0555874 46.0976033,62.4449761 45.015581,62.4449761 C44.7602238,62.4449761 44.436704,62.5030753 44.0450119,62.6192755 C43.6533198,62.7354756 43.3168159,62.8733189 43.0354902,63.0328093 L42.769314,62.2672591 C43.691197,61.7705603 44.5481458,61.5222146 45.3401861,61.5222146 C46.8809858,61.5222146 47.6513742,62.3811716 47.6513742,64.0991114 L47.6513742,67.1613124 C47.6513742,67.7810466 47.7076385,68.3324195 47.8201688,68.8154477 L47.8201688,68.8154477 L47.8201688,68.8154477 Z M46.6386064,66.7033493 L46.6386064,65.4114833 C45.7253795,65.4980638 45.098898,65.578947 44.759143,65.6541353 C44.419388,65.7293237 44.1250824,65.8694453 43.8762173,66.0745044 C43.6273521,66.2795636 43.5029214,66.5575284 43.5029214,66.9084074 C43.5029214,67.2273882 43.608958,67.4848475 43.8210344,67.6807929 C44.0331108,67.8767383 44.3036123,67.9747095 44.6325471,67.9747095 C44.9917785,67.9747095 45.3488405,67.8619287 45.7037438,67.6363636 C46.0586471,67.4107986 46.3702648,67.0997969 46.6386064,66.7033493 L46.6386064,66.7033493 L46.6386064,66.7033493 Z M55.6041982,68.8154477 L54.5914304,68.8154477 L54.5914304,67.7901572 C54.3836821,68.1410362 54.0861305,68.430393 53.6987665,68.6582365 C53.3114025,68.88608 52.9034862,69 52.4750054,69 C51.7002775,69 51.087862,68.6365951 50.6377407,67.9097744 C50.1876195,67.1829538 49.9625622,66.2613407 49.9625622,65.1449077 C49.9625622,64.1013846 50.1973575,63.2367316 50.6669552,62.5509228 C51.1365529,61.8651139 51.7587064,61.5222146 52.5334343,61.5222146 C53.3860679,61.5222146 54.0720597,61.8867587 54.5914304,62.6158578 L54.5914304,59.1708817 L55.6041982,59.1708817 L55.6041982,68.8154477 L55.6041982,68.8154477 Z M54.5914304,66.6349966 L54.5914304,63.6753247 C54.1066844,62.8550882 53.5224012,62.4449761 52.8385631,62.4449761 C52.2802396,62.4449761 51.8387811,62.7058529 51.5141744,63.2276145 C51.1895677,63.749376 51.0272668,64.408973 51.0272668,65.2064252 C51.0272668,66.0266617 51.1798297,66.7044858 51.48496,67.239918 C51.7900903,67.7753501 52.2088266,68.0430622 52.7411816,68.0430622 C52.9965388,68.0430622 53.2540563,67.9701534 53.5137416,67.8243336 C53.773427,67.6785137 54.0179603,67.4597873 54.2473491,67.1681476 C54.4767378,66.876508 54.5914304,66.6987928 54.5914304,66.6349966 L54.5914304,66.6349966 L54.5914304,66.6349966 Z" id="iPad" fill="#000000" sketch:type="MSShapeGroup"></path>
    </g>
</svg>