<?xml version="1.0" encoding="UTF-8" standalone="no"?>
<svg width="33px" height="32px" viewBox="0 0 33 32" version="1.1" xmlns="http://www.w3.org/2000/svg" xmlns:xlink="http://www.w3.org/1999/xlink" xmlns:sketch="http://www.bohemiancoding.com/sketch/ns">
    <!-- Generator: Sketch 3.3 (11970) - http://www.bohemiancoding.com/sketch -->
    <title>icon_links_1</title>
    <desc>Created with Sketch.</desc>
    <defs></defs>
    <g id="Page-1" stroke="none" stroke-width="1" fill="none" fill-rule="evenodd" sketch:type="MSPage">
        <g id="Artboard-1" sketch:type="MSArtboardGroup" transform="translate(-856.000000, -3296.000000)" fill="#555555">
            <g id="Group-+-GPOWER-®-2015-+-Rectangle-50-+-LOGO-Copy" sketch:type="MSLayerGroup" transform="translate(855.000000, 3296.000000)">
                <g id="Group-+-GPOWER-®-2015-+-Rectangle-50" sketch:type="MSShapeGroup">
                    <g id="Group" transform="translate(1.000000, 0.000000)">
                        <path d="M6.21428571,0 C3.05771429,0 0.5,2.56 0.5,5.71428571 L0.5,26.2857143 C0.5,29.4422857 3.05771429,32 6.21428571,32 L26.7857143,32 C29.9422857,32 32.5,29.4422857 32.5,26.2857143 L32.5,5.71428571 C32.5,2.56 29.9422857,0 26.7857143,0 L6.21428571,0 Z M23.3571429,3.04761905 L27.9285714,3.04761905 L27.9285714,7.61904762 L23.3571429,7.61904762 L23.3571429,3.04761905 L23.3571429,3.04761905 Z M16.5,6.85028571 C21.54,6.85028571 25.6291429,10.9462857 25.6291429,15.9931429 C25.6291429,21.0445714 21.54,25.1382857 16.5,25.1382857 C11.4554286,25.1382857 7.36628571,21.0445714 7.36628571,15.9931429 C7.36628571,10.9462857 11.4554286,6.85028571 16.5,6.85028571 L16.5,6.85028571 Z M25.6428571,29.7142857 L7.35714286,29.7142857 C4.83371429,29.7142857 2.78571429,27.6662857 2.78571429,25.1428571 L2.78571429,18.2857143 L2.78342857,13.7142857 L5.24285714,13.7142857 C5.16285714,14.2788571 5.076,14.8434286 5.076,15.4308571 C5.076,22.0525714 10.1914286,27.424 16.5,27.424 C22.8085714,27.424 27.924,22.0525714 27.924,15.4308571 C27.924,14.8434286 27.8394286,14.2788571 27.7594286,13.7142857 L30.2097143,13.7142857 L30.2097143,18.24 C30.2097143,18.256 30.2142857,25.1428571 30.2142857,25.1428571 C30.2142857,27.6662857 28.1662857,29.7142857 25.6428571,29.7142857 Z" id="Shape"></path>
                    </g>
                </g>
            </g>
        </g>
    </g>
</svg>