<?xml version="1.0" encoding="UTF-8" standalone="no"?>
<svg width="60px" height="40px" viewBox="0 0 60 40" version="1.1" xmlns="http://www.w3.org/2000/svg" xmlns:xlink="http://www.w3.org/1999/xlink" xmlns:sketch="http://www.bohemiancoding.com/sketch/ns">
    <!-- Generator: Sketch 3.4 (15575) - http://www.bohemiancoding.com/sketch -->
    <title>ki_flag2</title>
    <desc>Created with Sketch.</desc>
    <defs>
        <path id="path-1" d="M0,0.169714286 L59.448,0.169714286 L59.448,40 L0,40"></path>
        <path id="path-3" d="M0,0.169714286 L59.448,0.169714286 L59.448,40 L0,40 L0,0.169714286 Z"></path>
    </defs>
    <g id="Page-1" stroke="none" stroke-width="1" fill="none" fill-rule="evenodd" sketch:type="MSPage">
        <g id="ki_flag2" sketch:type="MSLayerGroup">
            <path d="M30.0065143,21.6194286 L0.000228571429,21.6194286 L0.000228571429,24.6868571 L59.4482286,24.6868571 L59.4482286,21.6194286 L30.0065143,21.6194286 Z" id="Fill-1" fill="#FFFFFF" sketch:type="MSShapeGroup"></path>
            <path d="M30.0062857,18.552 L59.448,18.552 L59.448,15.4845714 L30.0062857,15.4845714 L30.0062857,18.552 Z" id="Fill-2" fill="#FFFFFF" sketch:type="MSShapeGroup"></path>
            <path d="M0,30.8205714 L59.4485714,30.8205714 L59.4485714,27.7531429 L0,27.7531429 L0,30.8205714 Z" id="Fill-3" fill="#FFFFFF" sketch:type="MSShapeGroup"></path>
            <g id="Group-69">
                <path d="M0,34.9475429 C0,35.6606857 0.150285714,36.3395429 0.416571429,36.9544 L59.032,36.9544 C59.2988571,36.3395429 59.448,35.6606857 59.448,34.9475429 L59.448,33.8881143 L0,33.8881143 L0,34.9475429 Z" id="Fill-4" fill="#FFFFFF" sketch:type="MSShapeGroup"></path>
                <g id="Group-8">
                    <mask id="mask-2" sketch:name="Clip 7" fill="white">
                        <use xlink:href="#path-1"></use>
                    </mask>
                    <g id="Clip-7"></g>
                    <path d="M59.0318286,3.21651429 L30.0066857,3.21651429 L30.0066857,6.28222857 L59.4484,6.28222857 L59.4484,5.22337143 C59.4484,4.51022857 59.2986857,3.83137143 59.0318286,3.21651429" id="Fill-6" fill="#FFFFFF" sketch:type="MSShapeGroup" mask="url(#mask-2)"></path>
                </g>
                <mask id="mask-4" sketch:name="Clip 10" fill="white">
                    <use xlink:href="#path-3"></use>
                </mask>
                <g id="Clip-10"></g>
                <path d="M30.0068571,12.4171429 L59.448,12.4171429 L59.448,9.35028571 L30.0068571,9.35028571 L30.0068571,12.4171429 Z" id="Fill-9" fill="#FFFFFF" sketch:type="MSShapeGroup" mask="url(#mask-4)"></path>
                <path d="M54.3950857,0.169657143 L30.0065143,0.169657143 L30.0065143,3.21651429 L59.0316571,3.21651429 C58.2550857,1.42394286 56.4728,0.169657143 54.3950857,0.169657143" id="Fill-11" fill="#BE2134" sketch:type="MSShapeGroup" mask="url(#mask-4)"></path>
                <path d="M30.0068571,9.35028571 L59.448,9.35028571 L59.448,6.28228571 L30.0068571,6.28228571 L30.0068571,9.35028571 Z" id="Fill-12" fill="#BE2134" sketch:type="MSShapeGroup" mask="url(#mask-4)"></path>
                <path d="M30.0068571,15.4845714 L59.448,15.4845714 L59.448,12.4177143 L30.0068571,12.4177143 L30.0068571,15.4845714 Z" id="Fill-13" fill="#BE2134" sketch:type="MSShapeGroup" mask="url(#mask-4)"></path>
                <path d="M30.0068571,21.6194286 L59.448,21.6194286 L59.448,18.5525714 L30.0068571,18.5525714 L30.0068571,21.6194286 Z" id="Fill-14" fill="#BE2134" sketch:type="MSShapeGroup" mask="url(#mask-4)"></path>
                <path d="M0,27.7531429 L59.448,27.7531429 L59.448,24.6862857 L0,24.6862857 L0,27.7531429 Z" id="Fill-15" fill="#BE2134" sketch:type="MSShapeGroup" mask="url(#mask-4)"></path>
                <path d="M0,33.8885714 L59.448,33.8885714 L59.448,30.8205714 L0,30.8205714 L0,33.8885714 Z" id="Fill-16" fill="#BE2134" sketch:type="MSShapeGroup" mask="url(#mask-4)"></path>
                <path d="M5.05302857,40 L54.3953143,40 C56.4724571,40 58.2553143,38.7457143 59.0318857,36.9542857 L0.416457143,36.9542857 C1.19302857,38.7457143 2.97588571,40 5.05302857,40" id="Fill-17" fill="#BE2134" sketch:type="MSShapeGroup" mask="url(#mask-4)"></path>
                <path d="M28.2717714,20.3873143 L27.5494857,19.8627429 L26.8277714,20.3873143 L27.1032,19.5393143 L26.3809143,19.0147429 L27.2740571,19.0147429 L27.5494857,18.1661714 L27.8249143,19.0147429 L28.7174857,19.0147429 L27.9957714,19.5393143 L28.2717714,20.3873143 Z M23.2472,20.3873143 L22.5249143,19.8627429 L21.8037714,20.3873143 L22.0797714,19.5393143 L21.3574857,19.0147429 L22.2494857,19.0147429 L22.5249143,18.1661714 L22.8014857,19.0147429 L23.6929143,19.0147429 L22.9717714,19.5393143 L23.2472,20.3873143 Z M18.2237714,20.3873143 L17.5009143,19.8627429 L16.7797714,20.3873143 L17.0552,19.5393143 L16.3329143,19.0147429 L17.2254857,19.0147429 L17.5014857,18.1661714 L17.7774857,19.0147429 L18.6689143,19.0147429 L17.9477714,19.5393143 L18.2237714,20.3873143 Z M13.1992,20.3873143 L12.4769143,19.8627429 L11.7557714,20.3873143 L12.0312,19.5393143 L11.3089143,19.0147429 L12.2014857,19.0147429 L12.4769143,18.1661714 L12.7529143,19.0147429 L13.6449143,19.0147429 L12.9232,19.5393143 L13.1992,20.3873143 Z M8.1752,20.3873143 L7.45291429,19.8627429 L6.73234286,20.3873143 L7.0072,19.5393143 L6.28548571,19.0147429 L7.17805714,19.0147429 L7.45291429,18.1661714 L7.72891429,19.0147429 L8.62091429,19.0147429 L7.8992,19.5393143 L8.1752,20.3873143 Z M3.1512,20.3873143 L2.42891429,19.8627429 L1.70834286,20.3873143 L1.9832,19.5393143 L1.26148571,19.0147429 L2.15348571,19.0147429 L2.42891429,18.1661714 L2.70491429,19.0147429 L3.59691429,19.0147429 L2.87577143,19.5393143 L3.1512,20.3873143 Z M1.16205714,14.8313143 L2.05405714,14.8313143 L2.33005714,13.9821714 L2.60548571,14.8313143 L3.49748571,14.8313143 L2.7752,15.3558857 L3.0512,16.2044571 L2.32948571,15.6798857 L1.60834286,16.2044571 L1.8832,15.3558857 L1.16205714,14.8313143 Z M4.84205714,11.8290286 L5.11691429,12.6787429 L6.00948571,12.6787429 L5.28777143,13.2033143 L5.5632,14.0524571 L4.84148571,13.5267429 L4.1192,14.0524571 L4.39577143,13.2033143 L3.67348571,12.6787429 L4.56605714,12.6787429 L4.84205714,11.8290286 Z M3.07748571,12.0433143 L2.3552,11.5187429 L1.63405714,12.0433143 L1.90948571,11.1953143 L1.18834286,10.6718857 L2.07977143,10.6718857 L2.35577143,9.8216 L2.63177143,10.6718857 L3.52377143,10.6718857 L2.80205714,11.1953143 L3.07748571,12.0433143 Z M3.6992,8.51817143 L4.59177143,8.51817143 L4.8672,7.66845714 L5.1432,8.51817143 L6.0352,8.51817143 L5.31348571,9.04217143 L5.59005714,9.89074286 L4.8672,9.36617143 L4.14548571,9.89074286 L4.42148571,9.0416 L3.6992,8.51817143 Z M1.12662857,6.19874286 L2.01862857,6.19874286 L2.29577143,5.3496 L2.5712,6.19874286 L3.4632,6.19874286 L2.74091429,6.72217143 L3.01748571,7.57131429 L2.2952,7.04674286 L1.57234286,7.57131429 L1.84948571,6.72331429 L1.12662857,6.19874286 Z M4.80662857,3.19645714 L5.08205714,4.04445714 L5.97405714,4.04445714 L5.25291429,4.56902857 L5.52834286,5.4176 L4.80662857,4.89302857 L4.08548571,5.4176 L4.36091429,4.56902857 L3.63862857,4.04445714 L4.5312,4.04445714 L4.80662857,3.19645714 Z M7.3192,1.04331429 L7.59462857,1.89188571 L8.4872,1.89188571 L7.76491429,2.41645714 L8.04148571,3.26445714 L7.3192,2.73988571 L6.59691429,3.26445714 L6.87291429,2.41645714 L6.15177143,1.89188571 L7.04377143,1.89188571 L7.3192,1.04331429 Z M10.1066286,4.04445714 L10.9992,4.04445714 L10.2769143,4.56902857 L10.5529143,5.4176 L9.8312,4.89302857 L9.10948571,5.4176 L9.38491429,4.56902857 L8.6632,4.04445714 L9.5552,4.04445714 L9.8312,3.19645714 L10.1066286,4.04445714 Z M12.3432,1.04331429 L12.6186286,1.89188571 L13.5117714,1.89188571 L12.7894857,2.41645714 L13.0654857,3.26445714 L12.3432,2.73988571 L11.6214857,3.26445714 L11.8969143,2.41645714 L11.1752,1.89188571 L12.0677714,1.89188571 L12.3432,1.04331429 Z M15.1306286,4.04445714 L16.0232,4.04445714 L15.3009143,4.56902857 L15.5774857,5.4176 L14.8546286,4.89302857 L14.1340571,5.4176 L14.4089143,4.56902857 L13.6872,4.04445714 L14.5792,4.04445714 L14.8546286,3.19645714 L15.1306286,4.04445714 Z M17.3666286,1.04331429 L17.6420571,1.89188571 L18.5352,1.89188571 L17.8129143,2.41645714 L18.0889143,3.26445714 L17.3672,2.73988571 L16.6454857,3.26445714 L16.9209143,2.41645714 L16.1992,1.89188571 L17.0912,1.89188571 L17.3666286,1.04331429 Z M20.1546286,4.04445714 L21.0472,4.04445714 L20.3254857,4.56902857 L20.6009143,5.4176 L19.8786286,4.89417143 L19.1574857,5.4176 L19.4329143,4.56902857 L18.7112,4.04445714 L19.6032,4.04445714 L19.8797714,3.19645714 L20.1546286,4.04445714 Z M22.3906286,1.04331429 L22.6660571,1.89188571 L23.5586286,1.89188571 L22.8369143,2.41645714 L23.1129143,3.26445714 L22.3906286,2.73988571 L21.6689143,3.26445714 L21.9449143,2.41645714 L21.2226286,1.89188571 L22.1152,1.89188571 L22.3906286,1.04331429 Z M25.1786286,4.04445714 L26.0706286,4.04445714 L25.3494857,4.56902857 L25.6249143,5.4176 L24.9032,4.89302857 L24.1814857,5.4176 L24.4569143,4.56902857 L23.7352,4.04445714 L24.6277714,4.04445714 L24.9032,3.19645714 L25.1786286,4.04445714 Z M27.4152,1.04331429 L27.6900571,1.89188571 L28.5826286,1.89188571 L27.8609143,2.41645714 L28.1369143,3.26445714 L27.4146286,2.73988571 L26.6934857,3.26445714 L26.9689143,2.41645714 L26.2477714,1.89188571 L27.1392,1.89188571 L27.4152,1.04331429 Z M28.1369143,7.57131429 L27.4146286,7.04674286 L26.6934857,7.57131429 L26.9689143,6.72217143 L26.2477714,6.19874286 L27.1392,6.19874286 L27.4152,5.3496 L27.6912,6.19874286 L28.5826286,6.19874286 L27.8609143,6.72331429 L28.1369143,7.57131429 Z M25.6854857,9.89074286 L24.9637714,9.36617143 L24.2414857,9.89074286 L24.5174857,9.04217143 L23.7952,8.51817143 L24.6872,8.51817143 L24.9637714,7.66845714 L25.2386286,8.51817143 L26.1317714,8.51817143 L25.4100571,9.0416 L25.6854857,9.89074286 Z M28.1980571,12.0433143 L27.4757714,11.5187429 L26.7546286,12.0433143 L27.0300571,11.1953143 L26.3072,10.6718857 L27.1992,10.6718857 L27.4757714,9.8216 L27.7517714,10.6718857 L28.6437714,10.6718857 L27.9214857,11.1953143 L28.1980571,12.0433143 Z M26.1054857,12.6787429 L25.3837714,13.2033143 L25.6597714,14.0524571 L24.9374857,13.5267429 L24.2157714,14.0524571 L24.4912,13.2033143 L23.7694857,12.6787429 L24.6620571,12.6787429 L24.9380571,11.8290286 L25.2134857,12.6787429 L26.1054857,12.6787429 Z M25.7597714,18.2341714 L25.0374857,17.7096 L24.3157714,18.2341714 L24.5912,17.3861714 L23.8694857,16.8616 L24.7614857,16.8616 L25.0374857,16.0124571 L25.3129143,16.8616 L26.2049143,16.8616 L25.4832,17.3850286 L25.7597714,18.2341714 Z M21.9797714,15.3558857 L21.2574857,14.8313143 L22.1489143,14.8313143 L22.4260571,13.9821714 L22.7009143,14.8313143 L23.5940571,14.8313143 L22.8717714,15.3558857 L23.1472,16.2044571 L22.4260571,15.6798857 L21.7037714,16.2044571 L21.9797714,15.3558857 Z M16.9546286,15.3558857 L16.2334857,14.8313143 L17.1249143,14.8313143 L17.4014857,13.9821714 L17.6774857,14.8313143 L18.5694857,14.8313143 L17.8477714,15.3558857 L18.1232,16.2044571 L17.4014857,15.6798857 L16.6792,16.2044571 L16.9546286,15.3558857 Z M11.9312,15.3558857 L11.2094857,14.8313143 L12.1014857,14.8313143 L12.3774857,13.9821714 L12.6523429,14.8313143 L13.5454857,14.8313143 L12.8237714,15.3547429 L13.0997714,16.2044571 L12.3780571,15.6798857 L11.6563429,16.2044571 L11.9312,15.3558857 Z M10.6872,18.2341714 L9.96548571,17.7096 L9.24377143,18.2341714 L9.51977143,17.3861714 L8.79691429,16.8616 L9.69005714,16.8616 L9.96605714,16.0124571 L10.2414857,16.8616 L11.1340571,16.8616 L10.4112,17.3861714 L10.6872,18.2341714 Z M9.86491429,11.8290286 L10.1409143,12.6787429 L11.0334857,12.6787429 L10.3117714,13.2033143 L10.5877714,14.0524571 L9.86605714,13.5267429 L9.14377143,14.0524571 L9.42034286,13.2033143 L8.69805714,12.6787429 L9.59005714,12.6787429 L9.86491429,11.8290286 Z M7.37977143,9.8216 L7.65577143,10.6718857 L8.54777143,10.6718857 L7.82605714,11.1953143 L8.10148571,12.0433143 L7.3792,11.5187429 L6.65805714,12.0433143 L6.93291429,11.1953143 L6.21177143,10.6718857 L7.10377143,10.6718857 L7.37977143,9.8216 Z M8.72377143,8.51817143 L9.61577143,8.51817143 L9.89234286,7.66845714 L10.1672,8.51817143 L11.0597714,8.51817143 L10.3374857,9.0416 L10.6140571,9.89074286 L9.89234286,9.36617143 L9.17005714,9.89074286 L9.44605714,9.04217143 L8.72377143,8.51817143 Z M20.6620571,9.89074286 L19.9397714,9.36617143 L19.2174857,9.89074286 L19.4934857,9.0416 L18.7717714,8.51817143 L19.6643429,8.51817143 L19.9397714,7.66845714 L20.2146286,8.51817143 L21.1077714,8.51817143 L20.3854857,9.0416 L20.6620571,9.89074286 Z M23.1740571,12.0433143 L22.4512,11.5187429 L21.7300571,12.0433143 L22.0049143,11.1953143 L21.2832,10.6718857 L22.1752,10.6718857 L22.4512,9.8216 L22.7277714,10.6718857 L23.6186286,10.6718857 L22.8974857,11.1953143 L23.1740571,12.0433143 Z M12.4026286,9.8216 L12.6792,10.6718857 L13.5712,10.6718857 L12.8494857,11.1953143 L13.1249143,12.0433143 L12.4032,11.5187429 L11.6820571,12.0433143 L11.9569143,11.1953143 L11.2352,10.6718857 L12.1272,10.6718857 L12.4026286,9.8216 Z M18.1489143,12.0433143 L17.4272,11.5187429 L16.7060571,12.0433143 L16.9809143,11.1953143 L16.2597714,10.6718857 L17.1517714,10.6718857 L17.4277714,9.8216 L17.7032,10.6718857 L18.5946286,10.6718857 L17.8740571,11.1953143 L18.1489143,12.0433143 Z M13.7472,8.51817143 L14.6403429,8.51817143 L14.9157714,7.66845714 L15.1912,8.51817143 L16.0837714,8.51817143 L15.3609143,9.04217143 L15.6374857,9.89074286 L14.9152,9.36617143 L14.1934857,9.89074286 L14.4694857,9.04217143 L13.7472,8.51817143 Z M15.7117714,18.2341714 L14.9894857,17.7096 L14.2677714,18.2341714 L14.5437714,17.3850286 L13.8220571,16.8616 L14.7134857,16.8616 L14.9900571,16.0124571 L15.2654857,16.8616 L16.1580571,16.8616 L15.4352,17.3861714 L15.7117714,18.2341714 Z M16.0574857,12.6787429 L15.3357714,13.2033143 L15.6117714,14.0524571 L14.8894857,13.5267429 L14.1677714,14.0524571 L14.4432,13.2033143 L13.7220571,12.6787429 L14.6140571,12.6787429 L14.8894857,11.8290286 L15.1649143,12.6787429 L16.0574857,12.6787429 Z M20.7352,18.2341714 L20.0134857,17.7096 L19.2917714,18.2341714 L19.5677714,17.3850286 L18.8454857,16.8616 L19.7374857,16.8616 L20.0140571,16.0124571 L20.2894857,16.8616 L21.1814857,16.8616 L20.4592,17.3861714 L20.7352,18.2341714 Z M21.0814857,12.6787429 L20.3597714,13.2033143 L20.6357714,14.0524571 L19.9134857,13.5267429 L19.1917714,14.0524571 L19.4672,13.2021714 L18.7460571,12.6787429 L19.6380571,12.6787429 L19.9140571,11.8290286 L20.1889143,12.6787429 L21.0814857,12.6787429 Z M21.2226286,6.19874286 L22.1152,6.19874286 L22.3906286,5.3496 L22.6660571,6.19874286 L23.5586286,6.19874286 L22.8369143,6.72331429 L23.1129143,7.57131429 L22.3906286,7.04674286 L21.6689143,7.57131429 L21.9449143,6.72331429 L21.2226286,6.19874286 Z M16.1992,6.19874286 L17.0912,6.19874286 L17.3666286,5.3496 L17.6420571,6.19874286 L18.5352,6.19874286 L17.8129143,6.72217143 L18.0889143,7.57131429 L17.3672,7.04674286 L16.6454857,7.57131429 L16.9209143,6.72331429 L16.1992,6.19874286 Z M11.1752,6.19874286 L12.0677714,6.19874286 L12.3432,5.3496 L12.6186286,6.19874286 L13.5117714,6.19874286 L12.7894857,6.72217143 L13.0654857,7.57131429 L12.3432,7.04674286 L11.6214857,7.57131429 L11.8969143,6.72331429 L11.1752,6.19874286 Z M6.15177143,6.19874286 L7.04377143,6.19874286 L7.3192,5.3496 L7.59462857,6.19874286 L8.4872,6.19874286 L7.76491429,6.72217143 L8.04148571,7.57131429 L7.3192,7.04674286 L6.59691429,7.57131429 L6.87291429,6.72217143 L6.15177143,6.19874286 Z M6.9072,15.3558857 L6.18605714,14.8313143 L7.07805714,14.8313143 L7.35348571,13.9821714 L7.62891429,14.8313143 L8.52148571,14.8313143 L7.79977143,15.3558857 L8.07577143,16.2044571 L7.35348571,15.6798857 L6.63234286,16.2044571 L6.9072,15.3558857 Z M4.94148571,16.0124571 L5.21691429,16.8616 L6.11005714,16.8616 L5.38777143,17.3850286 L5.66377143,18.2341714 L4.94148571,17.7096 L4.21977143,18.2341714 L4.4952,17.3861714 L3.77348571,16.8616 L4.66491429,16.8616 L4.94148571,16.0124571 Z M28.1712,16.2044571 L27.4494857,15.6798857 L26.7283429,16.2044571 L27.0032,15.3558857 L26.2826286,14.8313143 L27.1740571,14.8313143 L27.4506286,13.9821714 L27.7254857,14.8313143 L28.6169143,14.8313143 L27.8957714,15.3558857 L28.1712,16.2044571 Z M30.0066286,18.5524571 L30.0066286,15.4844571 L30.0066286,12.4176 L30.0066286,9.35074286 L30.0066286,6.28217143 L30.0066286,3.21645714 L30.0066286,0.1696 L5.05291429,0.1696 C3.54034286,0.1696 2.18662857,0.838171429 1.26034286,1.89188571 L2.0192,1.89188571 L2.29577143,1.04331429 L2.57062857,1.89188571 L3.4632,1.89188571 L2.74091429,2.41645714 L3.01748571,3.26445714 L2.2952,2.73988571 L1.57234286,3.26445714 L1.84948571,2.41645714 L1.2072,1.9496 C0.455771429,2.83245714 -0.000228571429,3.97302857 -0.000228571429,5.22331429 L-0.000228571429,21.6193143 L30.0066286,21.6193143 L30.0066286,18.5524571 Z" id="Fill-18" fill="#223165" sketch:type="MSShapeGroup" mask="url(#mask-4)"></path>
                <path d="M1.57257143,3.26451429 L2.29542857,2.73994286 L3.01714286,3.26451429 L2.74114286,2.41651429 L3.46342857,1.89194286 L2.57085714,1.89194286 L2.296,1.04337143 L2.01885714,1.89194286 L1.26057143,1.89194286 C1.24285714,1.91194286 1.22457143,1.92965714 1.20685714,1.94965714 L1.84914286,2.41651429 L1.57257143,3.26451429 Z" id="Fill-19" fill="#FFFFFF" sketch:type="MSShapeGroup" mask="url(#mask-4)"></path>
                <path d="M6.59708571,3.26451429 L7.31937143,2.73994286 L8.04108571,3.26451429 L7.76508571,2.41651429 L8.48737143,1.89194286 L7.5948,1.89194286 L7.31937143,1.04337143 L7.04337143,1.89194286 L6.15194286,1.89194286 L6.87251429,2.41651429 L6.59708571,3.26451429 Z" id="Fill-20" fill="#FFFFFF" sketch:type="MSShapeGroup" mask="url(#mask-4)"></path>
                <path d="M11.6216571,3.26451429 L12.3433714,2.73994286 L13.0650857,3.26451429 L12.7896571,2.41651429 L13.5119429,1.89194286 L12.6182286,1.89194286 L12.3433714,1.04337143 L12.0673714,1.89194286 L11.1753714,1.89194286 L11.8965143,2.41651429 L11.6216571,3.26451429 Z" id="Fill-21" fill="#FFFFFF" sketch:type="MSShapeGroup" mask="url(#mask-4)"></path>
                <path d="M16.6456571,3.26451429 L17.3673714,2.73994286 L18.0885143,3.26451429 L17.8130857,2.41651429 L18.5353714,1.89194286 L17.6422286,1.89194286 L17.3668,1.04337143 L17.0908,1.89194286 L16.1993714,1.89194286 L16.9210857,2.41651429 L16.6456571,3.26451429 Z" id="Fill-22" fill="#FFFFFF" sketch:type="MSShapeGroup" mask="url(#mask-4)"></path>
                <path d="M21.6690857,3.26451429 L22.3908,2.73994286 L23.1125143,3.26451429 L22.8370857,2.41651429 L23.5588,1.89194286 L22.6662286,1.89194286 L22.3908,1.04337143 L22.1148,1.89194286 L21.2228,1.89194286 L21.9445143,2.41651429 L21.6690857,3.26451429 Z" id="Fill-23" fill="#FFFFFF" sketch:type="MSShapeGroup" mask="url(#mask-4)"></path>
                <path d="M26.6936571,3.26451429 L27.4148,2.73994286 L28.1365143,3.26451429 L27.8610857,2.41651429 L28.5828,1.89194286 L27.6902286,1.89194286 L27.4153714,1.04337143 L27.1388,1.89194286 L26.2479429,1.89194286 L26.9685143,2.41651429 L26.6936571,3.26451429 Z" id="Fill-24" fill="#FFFFFF" sketch:type="MSShapeGroup" mask="url(#mask-4)"></path>
                <path d="M4.08537143,5.41742857 L4.80708571,4.89285714 L5.52822857,5.41742857 L5.2528,4.56942857 L5.97451429,4.04485714 L5.08194286,4.04485714 L4.80708571,3.19628571 L4.53108571,4.04485714 L3.63851429,4.04485714 L4.3608,4.56942857 L4.08537143,5.41742857 Z" id="Fill-25" fill="#FFFFFF" sketch:type="MSShapeGroup" mask="url(#mask-4)"></path>
                <path d="M9.10937143,5.41742857 L9.83108571,4.89285714 L10.5528,5.41742857 L10.2768,4.56942857 L10.9996571,4.04485714 L10.1065143,4.04485714 L9.83108571,3.19628571 L9.55508571,4.04485714 L8.66308571,4.04485714 L9.3848,4.56942857 L9.10937143,5.41742857 Z" id="Fill-26" fill="#FFFFFF" sketch:type="MSShapeGroup" mask="url(#mask-4)"></path>
                <path d="M14.1339429,5.41742857 L14.8550857,4.89285714 L15.5773714,5.41742857 L15.3008,4.56942857 L16.0236571,4.04485714 L15.1305143,4.04485714 L14.8550857,3.19628571 L14.5790857,4.04485714 L13.6870857,4.04485714 L14.4088,4.56942857 L14.1339429,5.41742857 Z" id="Fill-27" fill="#FFFFFF" sketch:type="MSShapeGroup" mask="url(#mask-4)"></path>
                <path d="M19.1573714,5.41742857 L19.8790857,4.894 L20.6008,5.41742857 L20.3253714,4.56942857 L21.0476571,4.04485714 L20.1545143,4.04485714 L19.8796571,3.19628571 L19.6030857,4.04485714 L18.7110857,4.04485714 L19.4328,4.56942857 L19.1573714,5.41742857 Z" id="Fill-28" fill="#FFFFFF" sketch:type="MSShapeGroup" mask="url(#mask-4)"></path>
                <path d="M24.1813714,5.41742857 L24.9036571,4.89285714 L25.6248,5.41742857 L25.3493714,4.56942857 L26.0710857,4.04485714 L25.1785143,4.04485714 L24.9036571,3.19628571 L24.6276571,4.04485714 L23.7350857,4.04485714 L24.4568,4.56942857 L24.1813714,5.41742857 Z" id="Fill-29" fill="#FFFFFF" sketch:type="MSShapeGroup" mask="url(#mask-4)"></path>
                <path d="M1.57257143,7.57142857 L2.29542857,7.04685714 L3.01714286,7.57142857 L2.74114286,6.72228571 L3.46342857,6.19885714 L2.57142857,6.19885714 L2.296,5.34914286 L2.01828571,6.19885714 L1.12685714,6.19885714 L1.84914286,6.72342857 L1.57257143,7.57142857 Z" id="Fill-30" fill="#FFFFFF" sketch:type="MSShapeGroup" mask="url(#mask-4)"></path>
                <path d="M6.59708571,7.57142857 L7.31937143,7.04685714 L8.04108571,7.57142857 L7.76508571,6.72228571 L8.48737143,6.19885714 L7.5948,6.19885714 L7.31937143,5.34914286 L7.04337143,6.19885714 L6.15194286,6.19885714 L6.87251429,6.72228571 L6.59708571,7.57142857 Z" id="Fill-31" fill="#FFFFFF" sketch:type="MSShapeGroup" mask="url(#mask-4)"></path>
                <path d="M11.6216571,7.57142857 L12.3433714,7.04685714 L13.0650857,7.57142857 L12.7896571,6.72228571 L13.5119429,6.19885714 L12.6188,6.19885714 L12.3433714,5.34914286 L12.0673714,6.19885714 L11.1753714,6.19885714 L11.8965143,6.72342857 L11.6216571,7.57142857 Z" id="Fill-32" fill="#FFFFFF" sketch:type="MSShapeGroup" mask="url(#mask-4)"></path>
                <path d="M16.6456571,7.57142857 L17.3673714,7.04685714 L18.0885143,7.57142857 L17.8130857,6.72228571 L18.5353714,6.19885714 L17.6422286,6.19885714 L17.3668,5.34914286 L17.0908,6.19885714 L16.1993714,6.19885714 L16.9210857,6.72342857 L16.6456571,7.57142857 Z" id="Fill-33" fill="#FFFFFF" sketch:type="MSShapeGroup" mask="url(#mask-4)"></path>
                <path d="M21.6690857,7.57142857 L22.3908,7.04685714 L23.1125143,7.57142857 L22.8370857,6.72342857 L23.5588,6.19885714 L22.6662286,6.19885714 L22.3908,5.34914286 L22.1148,6.19885714 L21.2228,6.19885714 L21.9445143,6.72342857 L21.6690857,7.57142857 Z" id="Fill-34" fill="#FFFFFF" sketch:type="MSShapeGroup" mask="url(#mask-4)"></path>
                <path d="M26.6936571,7.57142857 L27.4148,7.04685714 L28.1365143,7.57142857 L27.8610857,6.72342857 L28.5828,6.19885714 L27.6913714,6.19885714 L27.4153714,5.34914286 L27.1388,6.19885714 L26.2479429,6.19885714 L26.9685143,6.72228571 L26.6936571,7.57142857 Z" id="Fill-35" fill="#FFFFFF" sketch:type="MSShapeGroup" mask="url(#mask-4)"></path>
                <path d="M5.14342857,8.51788571 L4.86742857,7.66874286 L4.59142857,8.51788571 L3.69942857,8.51788571 L4.42114286,9.04131429 L4.14571429,9.89045714 L4.86742857,9.36588571 L5.58971429,9.89045714 L5.31371429,9.04245714 L6.03542857,8.51788571 L5.14342857,8.51788571 Z" id="Fill-36" fill="#FFFFFF" sketch:type="MSShapeGroup" mask="url(#mask-4)"></path>
                <path d="M10.1674286,8.51788571 L9.89257143,7.66874286 L9.61542857,8.51788571 L8.724,8.51788571 L9.44571429,9.04245714 L9.17028571,9.89045714 L9.89257143,9.36588571 L10.6137143,9.89045714 L10.3377143,9.04131429 L11.06,8.51788571 L10.1674286,8.51788571 Z" id="Fill-37" fill="#FFFFFF" sketch:type="MSShapeGroup" mask="url(#mask-4)"></path>
                <path d="M15.1914286,8.51788571 L14.916,7.66874286 L14.64,8.51788571 L13.7474286,8.51788571 L14.4691429,9.04245714 L14.1937143,9.89045714 L14.9154286,9.36588571 L15.6371429,9.89045714 L15.3611429,9.04245714 L16.0834286,8.51788571 L15.1914286,8.51788571 Z" id="Fill-38" fill="#FFFFFF" sketch:type="MSShapeGroup" mask="url(#mask-4)"></path>
                <path d="M20.2148571,8.51788571 L19.94,7.66874286 L19.6645714,8.51788571 L18.772,8.51788571 L19.4931429,9.04131429 L19.2177143,9.89045714 L19.94,9.36588571 L20.6617143,9.89045714 L20.3857143,9.04131429 L21.1074286,8.51788571 L20.2148571,8.51788571 Z" id="Fill-39" fill="#FFFFFF" sketch:type="MSShapeGroup" mask="url(#mask-4)"></path>
                <path d="M25.2388571,8.51788571 L24.964,7.66874286 L24.6874286,8.51788571 L23.7954286,8.51788571 L24.5171429,9.04245714 L24.2417143,9.89045714 L24.964,9.36588571 L25.6851429,9.89045714 L25.4102857,9.04131429 L26.132,8.51788571 L25.2388571,8.51788571 Z" id="Fill-40" fill="#FFFFFF" sketch:type="MSShapeGroup" mask="url(#mask-4)"></path>
                <path d="M2.63171429,10.6718857 L2.35628571,9.8216 L2.07971429,10.6718857 L1.18828571,10.6718857 L1.90942857,11.1953143 L1.634,12.0433143 L2.35571429,11.5187429 L3.07742857,12.0433143 L2.802,11.1953143 L3.52428571,10.6718857 L2.63171429,10.6718857 Z" id="Fill-41" fill="#FFFFFF" sketch:type="MSShapeGroup" mask="url(#mask-4)"></path>
                <path d="M7.65571429,10.6718857 L7.38028571,9.8216 L7.10371429,10.6718857 L6.21228571,10.6718857 L6.93285714,11.1953143 L6.658,12.0433143 L7.37971429,11.5187429 L8.10142857,12.0433143 L7.826,11.1953143 L8.54771429,10.6718857 L7.65571429,10.6718857 Z" id="Fill-42" fill="#FFFFFF" sketch:type="MSShapeGroup" mask="url(#mask-4)"></path>
                <path d="M12.6791429,10.6718857 L12.4031429,9.8216 L12.1271429,10.6718857 L11.2357143,10.6718857 L11.9568571,11.1953143 L11.682,12.0433143 L12.4037143,11.5187429 L13.1248571,12.0433143 L12.8494286,11.1953143 L13.5711429,10.6718857 L12.6791429,10.6718857 Z" id="Fill-43" fill="#FFFFFF" sketch:type="MSShapeGroup" mask="url(#mask-4)"></path>
                <path d="M17.7031429,10.6718857 L17.4277143,9.8216 L17.1517143,10.6718857 L16.2597143,10.6718857 L16.9808571,11.1953143 L16.706,12.0433143 L17.4277143,11.5187429 L18.1488571,12.0433143 L17.874,11.1953143 L18.5951429,10.6718857 L17.7031429,10.6718857 Z" id="Fill-44" fill="#FFFFFF" sketch:type="MSShapeGroup" mask="url(#mask-4)"></path>
                <path d="M22.7277143,10.6718857 L22.4517143,9.8216 L22.1751429,10.6718857 L21.2831429,10.6718857 L22.0048571,11.1953143 L21.73,12.0433143 L22.4517143,11.5187429 L23.174,12.0433143 L22.8974286,11.1953143 L23.6185714,10.6718857 L22.7277143,10.6718857 Z" id="Fill-45" fill="#FFFFFF" sketch:type="MSShapeGroup" mask="url(#mask-4)"></path>
                <path d="M27.7517143,10.6718857 L27.4762857,9.8216 L27.1991429,10.6718857 L26.3077143,10.6718857 L27.03,11.1953143 L26.7545714,12.0433143 L27.4762857,11.5187429 L28.198,12.0433143 L27.9214286,11.1953143 L28.6437143,10.6718857 L27.7517143,10.6718857 Z" id="Fill-46" fill="#FFFFFF" sketch:type="MSShapeGroup" mask="url(#mask-4)"></path>
                <path d="M4.11942857,14.0524571 L4.84171429,13.5267429 L5.56285714,14.0524571 L5.288,13.2033143 L6.00971429,12.6787429 L5.11714286,12.6787429 L4.84228571,11.8290286 L4.56571429,12.6787429 L3.67371429,12.6787429 L4.39542857,13.2033143 L4.11942857,14.0524571 Z" id="Fill-47" fill="#FFFFFF" sketch:type="MSShapeGroup" mask="url(#mask-4)"></path>
                <path d="M9.144,14.0524571 L9.86628571,13.5267429 L10.5874286,14.0524571 L10.312,13.2033143 L11.0337143,12.6787429 L10.1411429,12.6787429 L9.86514286,11.8290286 L9.58971429,12.6787429 L8.69828571,12.6787429 L9.42,13.2033143 L9.144,14.0524571 Z" id="Fill-48" fill="#FFFFFF" sketch:type="MSShapeGroup" mask="url(#mask-4)"></path>
                <path d="M14.168,14.0524571 L14.8897143,13.5267429 L15.6114286,14.0524571 L15.336,13.2033143 L16.0577143,12.6787429 L15.1651429,12.6787429 L14.8897143,11.8290286 L14.6137143,12.6787429 L13.7222857,12.6787429 L14.4428571,13.2033143 L14.168,14.0524571 Z" id="Fill-49" fill="#FFFFFF" sketch:type="MSShapeGroup" mask="url(#mask-4)"></path>
                <path d="M19.192,14.0524571 L19.9137143,13.5267429 L20.6354286,14.0524571 L20.36,13.2033143 L21.0817143,12.6787429 L20.1891429,12.6787429 L19.9142857,11.8290286 L19.6377143,12.6787429 L18.7462857,12.6787429 L19.4668571,13.2021714 L19.192,14.0524571 Z" id="Fill-50" fill="#FFFFFF" sketch:type="MSShapeGroup" mask="url(#mask-4)"></path>
                <path d="M24.216,14.0524571 L24.9377143,13.5267429 L25.6594286,14.0524571 L25.384,13.2033143 L26.1057143,12.6787429 L25.2131429,12.6787429 L24.9382857,11.8290286 L24.6617143,12.6787429 L23.7697143,12.6787429 L24.4908571,13.2033143 L24.216,14.0524571 Z" id="Fill-51" fill="#FFFFFF" sketch:type="MSShapeGroup" mask="url(#mask-4)"></path>
                <path d="M1.60828571,16.2042286 L2.32942857,15.6796571 L3.05114286,16.2042286 L2.77514286,15.3562286 L3.49742857,14.8316571 L2.60542857,14.8316571 L2.33,13.9819429 L2.054,14.8316571 L1.162,14.8316571 L1.88314286,15.3562286 L1.60828571,16.2042286 Z" id="Fill-52" fill="#FFFFFF" sketch:type="MSShapeGroup" mask="url(#mask-4)"></path>
                <path d="M6.63228571,16.2042286 L7.35342857,15.6796571 L8.07571429,16.2042286 L7.79971429,15.3562286 L8.522,14.8316571 L7.62885714,14.8316571 L7.35342857,13.9819429 L7.078,14.8316571 L6.186,14.8316571 L6.90714286,15.3562286 L6.63228571,16.2042286 Z" id="Fill-53" fill="#FFFFFF" sketch:type="MSShapeGroup" mask="url(#mask-4)"></path>
                <path d="M11.6562857,16.2042286 L12.378,15.6796571 L13.0997143,16.2042286 L12.8237143,15.3550857 L13.5454286,14.8316571 L12.6522857,14.8316571 L12.3774286,13.9819429 L12.1014286,14.8316571 L11.2094286,14.8316571 L11.9311429,15.3562286 L11.6562857,16.2042286 Z" id="Fill-54" fill="#FFFFFF" sketch:type="MSShapeGroup" mask="url(#mask-4)"></path>
                <path d="M16.6791429,16.2042286 L17.4014286,15.6796571 L18.1231429,16.2042286 L17.8477143,15.3562286 L18.57,14.8316571 L17.6774286,14.8316571 L17.4014286,13.9819429 L17.1248571,14.8316571 L16.2334286,14.8316571 L16.9545714,15.3562286 L16.6791429,16.2042286 Z" id="Fill-55" fill="#FFFFFF" sketch:type="MSShapeGroup" mask="url(#mask-4)"></path>
                <path d="M21.7037143,16.2042286 L22.426,15.6796571 L23.1471429,16.2042286 L22.8717143,15.3562286 L23.594,14.8316571 L22.7008571,14.8316571 L22.426,13.9819429 L22.1488571,14.8316571 L21.2574286,14.8316571 L21.9797143,15.3562286 L21.7037143,16.2042286 Z" id="Fill-56" fill="#FFFFFF" sketch:type="MSShapeGroup" mask="url(#mask-4)"></path>
                <path d="M26.7282286,16.2042286 L27.4499429,15.6796571 L28.1710857,16.2042286 L27.8956571,15.3562286 L28.6173714,14.8316571 L27.7253714,14.8316571 L27.4505143,13.9819429 L27.1739429,14.8316571 L26.2825143,14.8316571 L27.0036571,15.3562286 L26.7282286,16.2042286 Z" id="Fill-57" fill="#FFFFFF" sketch:type="MSShapeGroup" mask="url(#mask-4)"></path>
                <path d="M5.21708571,16.8616 L4.94165714,16.0124571 L4.66508571,16.8616 L3.77365714,16.8616 L4.4948,17.3861714 L4.21994286,18.2341714 L4.94165714,17.7096 L5.66337143,18.2341714 L5.38794286,17.3850286 L6.10965714,16.8616 L5.21708571,16.8616 Z" id="Fill-58" fill="#FFFFFF" sketch:type="MSShapeGroup" mask="url(#mask-4)"></path>
                <path d="M10.2416571,16.8616 L9.96622857,16.0124571 L9.69022857,16.8616 L8.79708571,16.8616 L9.51937143,17.3861714 L9.24394286,18.2341714 L9.96565714,17.7096 L10.6868,18.2341714 L10.4113714,17.3861714 L11.1342286,16.8616 L10.2416571,16.8616 Z" id="Fill-59" fill="#FFFFFF" sketch:type="MSShapeGroup" mask="url(#mask-4)"></path>
                <path d="M15.2656571,16.8616 L14.9902286,16.0124571 L14.7136571,16.8616 L13.8222286,16.8616 L14.5433714,17.3850286 L14.2679429,18.2341714 L14.9896571,17.7096 L15.7113714,18.2341714 L15.4353714,17.3861714 L16.1576571,16.8616 L15.2656571,16.8616 Z" id="Fill-60" fill="#FFFFFF" sketch:type="MSShapeGroup" mask="url(#mask-4)"></path>
                <path d="M20.2896571,16.8616 L20.0142286,16.0124571 L19.7376571,16.8616 L18.8456571,16.8616 L19.5673714,17.3850286 L19.2919429,18.2341714 L20.0136571,17.7096 L20.7353714,18.2341714 L20.4593714,17.3861714 L21.1816571,16.8616 L20.2896571,16.8616 Z" id="Fill-61" fill="#FFFFFF" sketch:type="MSShapeGroup" mask="url(#mask-4)"></path>
                <path d="M25.3130857,16.8616 L25.0376571,16.0124571 L24.7616571,16.8616 L23.8696571,16.8616 L24.5908,17.3861714 L24.3159429,18.2341714 L25.0376571,17.7096 L25.7593714,18.2341714 L25.4833714,17.3850286 L26.2050857,16.8616 L25.3130857,16.8616 Z" id="Fill-62" fill="#FFFFFF" sketch:type="MSShapeGroup" mask="url(#mask-4)"></path>
                <path d="M2.7048,19.0145143 L2.42937143,18.1665143 L2.15337143,19.0145143 L1.26194286,19.0145143 L1.98308571,19.5390857 L1.70822857,20.3870857 L2.42937143,19.8625143 L3.15108571,20.3870857 L2.87565714,19.5390857 L3.59737143,19.0145143 L2.7048,19.0145143 Z" id="Fill-63" fill="#FFFFFF" sketch:type="MSShapeGroup" mask="url(#mask-4)"></path>
                <path d="M7.7288,19.0145143 L7.45337143,18.1665143 L7.17794286,19.0145143 L6.28594286,19.0145143 L7.00708571,19.5390857 L6.73222857,20.3870857 L7.45337143,19.8625143 L8.17508571,20.3870857 L7.89908571,19.5390857 L8.6208,19.0145143 L7.7288,19.0145143 Z" id="Fill-64" fill="#FFFFFF" sketch:type="MSShapeGroup" mask="url(#mask-4)"></path>
                <path d="M12.7528,19.0145143 L12.4773714,18.1665143 L12.2013714,19.0145143 L11.3093714,19.0145143 L12.0310857,19.5390857 L11.7556571,20.3870857 L12.4773714,19.8625143 L13.1990857,20.3870857 L12.9230857,19.5390857 L13.6453714,19.0145143 L12.7528,19.0145143 Z" id="Fill-65" fill="#FFFFFF" sketch:type="MSShapeGroup" mask="url(#mask-4)"></path>
                <path d="M17.7773714,19.0145143 L17.5019429,18.1665143 L17.2253714,19.0145143 L16.3333714,19.0145143 L17.0550857,19.5390857 L16.7796571,20.3870857 L17.5013714,19.8625143 L18.2236571,20.3870857 L17.9476571,19.5390857 L18.6693714,19.0145143 L17.7773714,19.0145143 Z" id="Fill-66" fill="#FFFFFF" sketch:type="MSShapeGroup" mask="url(#mask-4)"></path>
                <path d="M22.8013714,19.0145143 L22.5253714,18.1665143 L22.2493714,19.0145143 L21.3579429,19.0145143 L22.0796571,19.5390857 L21.8036571,20.3870857 L22.5253714,19.8625143 L23.2470857,20.3870857 L22.9716571,19.5390857 L23.6933714,19.0145143 L22.8013714,19.0145143 Z" id="Fill-67" fill="#FFFFFF" sketch:type="MSShapeGroup" mask="url(#mask-4)"></path>
                <path d="M28.7176571,19.0145143 L27.8250857,19.0145143 L27.5496571,18.1665143 L27.2742286,19.0145143 L26.3810857,19.0145143 L27.1033714,19.5390857 L26.8273714,20.3870857 L27.5496571,19.8625143 L28.2719429,20.3870857 L27.9953714,19.5390857 L28.7176571,19.0145143 Z" id="Fill-68" fill="#FFFFFF" sketch:type="MSShapeGroup" mask="url(#mask-4)"></path>
            </g>
        </g>
    </g>
</svg>