<?xml version="1.0" encoding="UTF-8" standalone="no"?>
<svg width="60px" height="40px" viewBox="0 0 60 40" version="1.1" xmlns="http://www.w3.org/2000/svg" xmlns:xlink="http://www.w3.org/1999/xlink" xmlns:sketch="http://www.bohemiancoding.com/sketch/ns">
    <!-- Generator: Sketch 3.4 (15575) - http://www.bohemiancoding.com/sketch -->
    <title>ki_flag1</title>
    <desc>Created with Sketch.</desc>
    <defs>
        <path id="path-1" d="M0,0.169714286 L59.448,0.169714286 L59.448,40 L0,40 L0,0.169714286 Z"></path>
    </defs>
    <g id="Page-1" stroke="none" stroke-width="1" fill="none" fill-rule="evenodd" sketch:type="MSPage">
        <g id="ki_flag1" sketch:type="MSLayerGroup">
            <g id="Group-3">
                <mask id="mask-2" sketch:name="Clip 2" fill="white">
                    <use xlink:href="#path-1"></use>
                </mask>
                <g id="Clip-2"></g>
                <path d="M24.9598286,15.6629714 L23.7546857,14.8515429 L22.6112571,15.7464 L23.0101143,14.3504 L21.8055429,13.5401143 L23.2569714,13.4875429 L23.6558286,12.0915429 L24.1541143,13.4555429 L25.6049714,13.4029714 L24.4615429,14.2989714 L24.9598286,15.6629714 Z M22.8472571,6.29782857 L23.8581143,7.34068571 L25.1621143,6.70068571 L24.4832571,7.98411429 L25.4946857,9.02697143 L24.0638286,8.77782857 L23.3849714,10.0612571 L23.1798286,8.62411429 L21.7484,8.37497143 L23.0524,7.73554286 L22.8472571,6.29782857 Z M20.3055429,4.59611429 L20.1781143,6.0424 L19.4306857,4.79782857 L18.0164,5.12411429 L18.9695429,4.02811429 L18.2221143,2.7824 L19.5586857,3.3504 L20.5124,2.25554286 L20.3838286,3.70182857 L21.7209714,4.2704 L20.3055429,4.59611429 Z M20.1346857,20.0212571 L19.3895429,18.8201143 L18.0598286,19.1841143 L18.9369714,18.0881143 L18.1324,16.7904 L19.2124,17.2309714 L19.4821143,17.3326857 L20.4141143,16.2298286 L20.4129714,16.2435429 L20.4352571,16.2166857 L20.3661143,17.7018286 L21.6518286,18.2275429 L20.2409714,18.5738286 L20.1346857,20.0212571 Z M13.2598286,14.9418286 L9.7364,12.3818286 L6.21182857,14.9418286 L7.55754286,10.7989714 L4.03297143,8.23897143 L8.39011429,8.23897143 L9.7364,4.09497143 L11.0826857,8.23897143 L15.4392571,8.23897143 L11.9146857,10.7989714 L13.2598286,14.9418286 Z M54.3952571,0.169828571 L5.05297143,0.169828571 C2.26211429,0.169828571 -0.000171428571,2.43211429 -0.000171428571,5.22297143 L-0.000171428571,34.9475429 C-0.000171428571,37.7378286 2.26211429,40.0001143 5.05297143,40.0001143 L54.3952571,40.0001143 C57.1861143,40.0001143 59.4484,37.7378286 59.4484,34.9475429 L59.4484,5.22297143 C59.4484,2.43211429 57.1861143,0.169828571 54.3952571,0.169828571 L54.3952571,0.169828571 Z" id="Fill-1" fill="#DC362A" sketch:type="MSShapeGroup" mask="url(#mask-2)"></path>
            </g>
            <path d="M11.0825714,8.23885714 L9.73685714,4.09485714 L8.39,8.23885714 L4.03285714,8.23885714 L7.55742857,10.7988571 L6.21228571,14.9417143 L9.73685714,12.3817143 L13.2602857,14.9417143 L11.9145714,10.7988571 L15.4391429,8.23885714 L11.0825714,8.23885714 Z" id="Fill-4" fill="#FFDD00" sketch:type="MSShapeGroup"></path>
            <path d="M20.5122857,2.2556 L19.5585714,3.35045714 L18.222,2.78245714 L18.9694286,4.02817143 L18.0162857,5.12417143 L19.4305714,4.79788571 L20.178,6.04245714 L20.306,4.59617143 L21.7208571,4.26988571 L20.3837143,3.70188571 L20.5122857,2.2556 Z" id="Fill-6" fill="#FFDD00" sketch:type="MSShapeGroup"></path>
            <path d="M23.1797143,8.62388571 L23.3848571,10.0616 L24.0637143,8.77817143 L25.4945714,9.02674286 L24.4831429,7.98445714 L25.162,6.70102857 L23.8585714,7.34045714 L22.8471429,6.29817143 L23.0522857,7.73531429 L21.7482857,8.37474286 L23.1797143,8.62388571 Z" id="Fill-8" fill="#FFDD00" sketch:type="MSShapeGroup"></path>
            <path d="M25.6049143,13.4029143 L24.1540571,13.4554857 L23.6557714,12.0914857 L23.2569143,13.4874857 L21.8054857,13.5400571 L23.0100571,14.3503429 L22.6112,15.7469143 L23.7546286,14.8514857 L24.9597714,15.6629143 L24.4614857,14.2989143 L25.6049143,13.4029143 Z" id="Fill-10" fill="#FFDD00" sketch:type="MSShapeGroup"></path>
            <path d="M20.4352571,16.2165143 L20.4129714,16.2433714 L20.4141143,16.2296571 L19.4821143,17.3325143 L19.2124,17.2308 L18.1324,16.7902286 L18.9369714,18.0879429 L18.0598286,19.1839429 L19.3895429,18.8205143 L20.1346857,20.0210857 L20.2409714,18.5736571 L21.6518286,18.2279429 L20.3661143,17.7022286 L20.4352571,16.2165143 Z" id="Fill-12" fill="#FFDD00" sketch:type="MSShapeGroup"></path>
        </g>
    </g>
</svg>