<?xml version="1.0" encoding="UTF-8" standalone="no"?>
<svg width="42px" height="65px" viewBox="0 0 42 65" version="1.1" xmlns="http://www.w3.org/2000/svg" xmlns:xlink="http://www.w3.org/1999/xlink" xmlns:sketch="http://www.bohemiancoding.com/sketch/ns">
    <!-- Generator: Sketch 3.3 (11970) - http://www.bohemiancoding.com/sketch -->
    <title>LOGO</title>
    <desc>Created with Sketch.</desc>
    <defs>
        <path id="path-1" d="M16.9090909,42.5792593 C16.9090909,42.9174074 17.1831818,43.1903704 17.5227273,43.1903704 L24.6818182,43.1903704 L24.6818182,31.4611111 C24.6818182,30.9559259 24.8884091,30.4955556 25.2218182,30.1655556 L25.3159091,30.077963 L29.64,26.0812963 L29.64,46.2459259 C29.64,47.2583333 28.8156818,48.0792593 27.7990909,48.0792593 L12.6136364,48.0792593 C12.2740909,48.0792593 12,47.8042593 12,47.4681481 L12,12.2559259 C12,11.2862963 12.7895455,10.5 13.7631818,10.5 L29.0263636,10.5 C29.3659091,10.5 29.64,10.772963 29.64,11.1111111 L29.64,15.0833333 C29.64,15.2503704 29.5029545,15.3888889 29.3331818,15.3888889 L17.5227273,15.3888889 C17.1831818,15.3888889 16.9090909,15.6618519 16.9090909,16 L16.9090909,42.5792593 Z"></path>
    </defs>
    <g id="website" stroke="none" stroke-width="1" fill="none" fill-rule="evenodd" sketch:type="MSPage">
        <g id="Artboard-1" sketch:type="MSArtboardGroup" transform="translate(-456.000000, 0.000000)">
            <g id="MENU-BAR" sketch:type="MSLayerGroup">
                <g id="LOGO" transform="translate(456.000000, 0.000000)">
                    <rect id="Rectangle-1" fill="#FFFFFF" sketch:type="MSShapeGroup" x="0" y="0" width="42" height="65"></rect>
                    <path d="M14.4334773,53.4798519 C14.8302955,53.4798519 15.0143864,53.2767593 15.0143864,52.8707778 L15.0143864,51.9508519 C15.0143864,51.7842222 14.95425,51.6410185 14.8341818,51.5212407 C14.7141136,51.401463 14.5975227,51.3417778 14.4334773,51.3417778 L12.0985909,51.3417778 L12.0985909,54.3979444 L12.6938182,54.3979444 L12.6938182,53.4798519 L14.4334773,53.4798519 L14.4334773,53.4798519 Z M12.7130455,51.955537 L14.3999318,51.955537 L14.3999318,52.8705741 L12.7130455,52.8705741 L12.7130455,51.955537 Z" id="Fill-1" fill="#000000" sketch:type="MSShapeGroup"></path>
                    <path d="M18.3795682,53.7886667 L18.3795682,51.9508519 C18.3795682,51.7842222 18.3222955,51.6410185 18.20775,51.5212407 C18.093,51.401463 17.9518636,51.3417778 17.7843409,51.3417778 L15.9933409,51.3417778 C15.8223409,51.3417778 15.6803864,51.4032963 15.5674773,51.526537 C15.4545682,51.6497778 15.4748182,51.7652778 15.4748182,51.9264074 L15.4748182,53.7827593 C15.4748182,53.8562963 15.4817727,53.9247407 15.4958864,53.9876852 C15.5625682,54.2612593 15.6752727,54.3979444 15.9933409,54.3979444 L17.7843409,54.3979444 C18.1811591,54.3979444 18.3795682,54.1948519 18.3795682,53.7886667 L18.3795682,53.7886667 Z M16.0868182,53.7827593 L16.0868182,51.9551296 L17.7843409,51.9508519 L17.7843409,53.7886667 L16.0868182,53.7827593 L16.0868182,53.7827593 Z" id="Fill-2" fill="#000000" sketch:type="MSShapeGroup"></path>
                    <path d="M22.9564773,51.3417778 L22.1354318,53.6637963 L21.4630909,51.3417778 L21.0167727,51.3417778 L20.3444318,53.6637963 L19.5285,51.3417778 L18.8563636,51.3417778 L20.0468182,54.3979444 L20.6420455,54.3979444 L21.2425909,52.5652222 L21.8378182,54.3979444 L22.4330455,54.3979444 L23.6237045,51.3417778 L22.9564773,51.3417778" id="Fill-3" fill="#000000" sketch:type="MSShapeGroup"></path>
                    <path d="M26.5165909,53.7886667 L24.6803864,53.7886667 L24.6803864,53.3270741 L25.74975,53.3270741 L26.2097727,52.718 L24.6803864,52.718 L24.6803864,51.9508519 L26.5165909,51.9508519 L26.5165909,51.3417778 L24.0630682,51.3417778 L24.0630682,54.3979444 L26.5165909,54.3979444 L26.5165909,53.7886667" id="Fill-4" fill="#000000" sketch:type="MSShapeGroup"></path>
                    <path d="M28.4626364,53.3270741 L29.1550227,53.3270741 C29.5442727,53.3270741 29.7392045,53.1241852 29.7392045,52.718 L29.7392045,51.9508519 C29.7392045,51.7842222 29.68275,51.6410185 29.5704545,51.5212407 C29.4579545,51.401463 29.3194773,51.3417778 29.1550227,51.3417778 L26.9800909,51.3417778 L26.9800909,54.3979444 L27.579,54.3979444 L27.579,53.3270741 L27.6720682,53.3270741 L29.0016136,54.3979444 L29.8944545,54.3979444 L28.4626364,53.3270741 L28.4626364,53.3270741 Z M27.579,51.9508519 L29.1548182,51.9508519 L29.1548182,52.718 L27.579,52.718 L27.579,51.9508519 Z" id="Fill-5" fill="#000000" sketch:type="MSShapeGroup"></path>
                    <mask id="mask-2" sketch:name="Mask" fill="white">
                        <use xlink:href="#path-1"></use>
                    </mask>
                    <use id="Mask" fill="#F9B30D" sketch:type="MSShapeGroup" xlink:href="#path-1"></use>
                    <path d="M31.75,49.5 C31.75,49.707669 8.75,49.25 8.75,49.25 C8.75,49.25 8.25,11.1246716 8.25,10.9949785 L12.536237,10.9949785 L17.0853083,15.5709214 L31.75,49.5 Z" id="Imported-Layers-Copy" fill="#FA9D0B" sketch:type="MSShapeGroup" mask="url(#mask-2)"></path>
                    <path d="M17.0555371,42.9760005 C17.1679844,43.1072824 23.7499995,38.4999998 23.7499995,38.4999998 L30.2500005,39.5 L30.2500005,49.4999998 L12.1629436,49.4999998 C12.1629436,49.4999998 12.274943,48.0033623 12.1629436,47.88258 C12.0617515,47.7734526 16.9641713,42.8693313 17.0555371,42.9760005 Z" id="Mask-Copy-2" fill="#FA6E11" sketch:type="MSShapeGroup" mask="url(#mask-2)"></path>
                    <path d="M24.6818182,43.1903704 L23.5000001,43.1903706 L23.5000001,26 L30.5000002,26 L30.5000002,47.5003923 L29.1414862,47.5003923 L24.6818182,43.1903704 Z" id="Mask-Copy-3" fill="#F14510" sketch:type="MSShapeGroup" mask="url(#mask-2)"></path>
                </g>
            </g>
        </g>
    </g>
</svg>